<svg width="22" height="22" viewBox="0 0 22 22" fill="none" xmlns="http://www.w3.org/2000/svg">
<path d="M2.83333 21.5C2.19167 21.5 1.64236 21.2715 1.18542 20.8146C0.728472 20.3576 0.5 19.8083 0.5 19.1667V2.83333C0.5 2.19167 0.728472 1.64236 1.18542 1.18542C1.64236 0.728472 2.19167 0.5 2.83333 0.5H19.1667C19.8083 0.5 20.3576 0.728472 20.8146 1.18542C21.2715 1.64236 21.5 2.19167 21.5 2.83333V19.1667C21.5 19.8083 21.2715 20.3576 20.8146 20.8146C20.3576 21.2715 19.8083 21.5 19.1667 21.5H2.83333ZM6.91667 13.3333H8.08333C8.41389 13.3333 8.69097 13.2215 8.91458 12.9979C9.13819 12.7743 9.25 12.4972 9.25 12.1667V11.5833C9.25 11.4278 9.19167 11.2917 9.075 11.175C8.95833 11.0583 8.82222 11 8.66667 11C8.51111 11 8.375 11.0583 8.25833 11.175C8.14167 11.2917 8.08333 11.4278 8.08333 11.5833V12.1667H6.91667V9.83333H8.66667C8.82222 9.83333 8.95833 9.775 9.075 9.65833C9.19167 9.54167 9.25 9.40556 9.25 9.25C9.25 9.09444 9.19167 8.95833 9.075 8.84167C8.95833 8.725 8.82222 8.66667 8.66667 8.66667H6.91667C6.58611 8.66667 6.30903 8.77847 6.08542 9.00208C5.86181 9.22569 5.75 9.50278 5.75 9.83333V12.1667C5.75 12.4972 5.86181 12.7743 6.08542 12.9979C6.30903 13.2215 6.58611 13.3333 6.91667 13.3333ZM11 13.3333C11.1556 13.3333 11.2917 13.275 11.4083 13.1583C11.525 13.0417 11.5833 12.9056 11.5833 12.75V9.25C11.5833 9.09444 11.525 8.95833 11.4083 8.84167C11.2917 8.725 11.1556 8.66667 11 8.66667C10.8444 8.66667 10.7083 8.725 10.5917 8.84167C10.475 8.95833 10.4167 9.09444 10.4167 9.25V12.75C10.4167 12.9056 10.475 13.0417 10.5917 13.1583C10.7083 13.275 10.8444 13.3333 11 13.3333ZM13.3333 13.3333C13.4889 13.3333 13.625 13.275 13.7417 13.1583C13.8583 13.0417 13.9167 12.9056 13.9167 12.75V11.5833H15.0833C15.2389 11.5833 15.375 11.525 15.4917 11.4083C15.6083 11.2917 15.6667 11.1556 15.6667 11C15.6667 10.8444 15.6083 10.7083 15.4917 10.5917C15.375 10.475 15.2389 10.4167 15.0833 10.4167H13.9167V9.83333H15.6667C15.8222 9.83333 15.9583 9.775 16.075 9.65833C16.1917 9.54167 16.25 9.40556 16.25 9.25C16.25 9.09444 16.1917 8.95833 16.075 8.84167C15.9583 8.725 15.8222 8.66667 15.6667 8.66667H13.3333C13.1778 8.66667 13.0417 8.725 12.925 8.84167C12.8083 8.95833 12.75 9.09444 12.75 9.25V12.75C12.75 12.9056 12.8083 13.0417 12.925 13.1583C13.0417 13.275 13.1778 13.3333 13.3333 13.3333Z" fill="#A7A7A7"/>
</svg>
