<svg width="40" height="40" viewBox="0 0 40 40" fill="none" xmlns="http://www.w3.org/2000/svg">
<circle cx="20" cy="20" r="19.5" fill="#EDFEF3" stroke="#00A63D"/>
<mask id="mask0_2539_173" style="mask-type:alpha" maskUnits="userSpaceOnUse" x="8" y="8" width="24" height="24">
<rect x="8" y="8" width="24" height="24" fill="#D9D9D9"/>
</mask>
<g mask="url(#mask0_2539_173)">
<path d="M18.6 21.8L16.45 19.65C16.2667 19.4667 16.0333 19.375 15.75 19.375C15.4667 19.375 15.2333 19.4667 15.05 19.65C14.8667 19.8333 14.775 20.0667 14.775 20.35C14.775 20.6333 14.8667 20.8667 15.05 21.05L17.9 23.9C18.1 24.1 18.3333 24.2 18.6 24.2C18.8667 24.2 19.1 24.1 19.3 23.9L24.95 18.25C25.1333 18.0667 25.225 17.8333 25.225 17.55C25.225 17.2667 25.1333 17.0333 24.95 16.85C24.7667 16.6667 24.5333 16.575 24.25 16.575C23.9667 16.575 23.7333 16.6667 23.55 16.85L18.6 21.8ZM20 30C18.6167 30 17.3167 29.7375 16.1 29.2125C14.8833 28.6875 13.825 27.975 12.925 27.075C12.025 26.175 11.3125 25.1167 10.7875 23.9C10.2625 22.6833 10 21.3833 10 20C10 18.6167 10.2625 17.3167 10.7875 16.1C11.3125 14.8833 12.025 13.825 12.925 12.925C13.825 12.025 14.8833 11.3125 16.1 10.7875C17.3167 10.2625 18.6167 10 20 10C21.3833 10 22.6833 10.2625 23.9 10.7875C25.1167 11.3125 26.175 12.025 27.075 12.925C27.975 13.825 28.6875 14.8833 29.2125 16.1C29.7375 17.3167 30 18.6167 30 20C30 21.3833 29.7375 22.6833 29.2125 23.9C28.6875 25.1167 27.975 26.175 27.075 27.075C26.175 27.975 25.1167 28.6875 23.9 29.2125C22.6833 29.7375 21.3833 30 20 30Z" fill="#00A63D"/>
</g>
</svg>
