<svg width="49" height="47" viewBox="0 0 49 47" fill="none" xmlns="http://www.w3.org/2000/svg">
<g clip-path="url(#clip0_82_13)">
<path d="M41.25 0.75C43.3054 0.75 45.2771 1.56612 46.7305 3.01953C48.1839 4.47294 49 6.44457 49 8.5V32.875C49 34.9304 48.1839 36.9021 46.7305 38.3555C45.2771 39.8089 43.3054 40.625 41.25 40.625H11.8066L3.20117 47.5078C2.88871 47.7573 2.51157 47.9139 2.11426 47.959C1.71711 48.004 1.31537 47.9357 0.955078 47.7627C0.594734 47.5896 0.290296 47.3187 0.0771484 46.9805C-0.135966 46.6422 -0.249387 46.2504 -0.25 45.8506V8.5C-0.25 6.44457 0.566124 4.47294 2.01953 3.01953C3.47294 1.56612 5.44457 0.75 7.5 0.75H41.25ZM7.32617 5.00391C6.4612 5.04688 5.64068 5.4101 5.02539 6.02539C4.36901 6.68177 4 7.57174 4 8.5V41.4287L10.2461 36.4297L10.3145 36.375H41.25C42.1783 36.375 43.0682 36.006 43.7246 35.3496C44.381 34.6932 44.75 33.8033 44.75 32.875V8.5C44.75 7.57174 44.381 6.68177 43.7246 6.02539C43.0682 5.36901 42.1783 5 41.25 5H7.5L7.32617 5.00391Z" fill="#479BD8" stroke="#479BD8" stroke-width="0.5"/>
<path d="M24.375 22.75C23.5794 22.75 22.8163 22.4339 22.2537 21.8713C21.6911 21.3087 21.375 20.5457 21.375 19.75C21.375 18.9544 21.6911 18.1913 22.2537 17.6287C22.8163 17.0661 23.5794 16.75 24.375 16.75C25.1707 16.75 25.9337 17.0661 26.4963 17.6287C27.0589 18.1913 27.375 18.9544 27.375 19.75C27.375 20.5457 27.0589 21.3087 26.4963 21.8713C25.9337 22.4339 25.1707 22.75 24.375 22.75ZM35.625 22.75C34.8294 22.75 34.0663 22.4339 33.5037 21.8713C32.9411 21.3087 32.625 20.5457 32.625 19.75C32.625 18.9544 32.9411 18.1913 33.5037 17.6287C34.0663 17.0661 34.8294 16.75 35.625 16.75C36.4207 16.75 37.1837 17.0661 37.7463 17.6287C38.3089 18.1913 38.625 18.9544 38.625 19.75C38.625 20.5457 38.3089 21.3087 37.7463 21.8713C37.1837 22.4339 36.4207 22.75 35.625 22.75ZM13.125 22.75C12.3294 22.75 11.5663 22.4339 11.0037 21.8713C10.4411 21.3087 10.125 20.5457 10.125 19.75C10.125 18.9544 10.4411 18.1913 11.0037 17.6287C11.5663 17.0661 12.3294 16.75 13.125 16.75C13.9207 16.75 14.6837 17.0661 15.2463 17.6287C15.8089 18.1913 16.125 18.9544 16.125 19.75C16.125 20.5457 15.8089 21.3087 15.2463 21.8713C14.6837 22.4339 13.9207 22.75 13.125 22.75Z" fill="#479BD8"/>
</g>
<defs>
<clipPath id="clip0_82_13">
<rect width="49" height="47" fill="white"/>
</clipPath>
</defs>
</svg>
