<svg width="23" height="24" viewBox="0 0 23 24" fill="none" xmlns="http://www.w3.org/2000/svg">
<path d="M22 22.5L16.9332 17.4332M16.9332 17.4332C17.7999 16.5665 18.4874 15.5375 18.9564 14.4051C19.4255 13.2727 19.6669 12.059 19.6669 10.8333C19.6669 9.60763 19.4255 8.39393 18.9564 7.26153C18.4874 6.12912 17.7999 5.1002 16.9332 4.2335C16.0665 3.36679 15.0375 2.67929 13.9051 2.21023C12.7727 1.74118 11.559 1.49976 10.3333 1.49976C9.10763 1.49976 7.89393 1.74118 6.76153 2.21023C5.62912 2.67929 4.6002 3.36679 3.7335 4.2335C1.98311 5.98388 0.999756 8.35791 0.999756 10.8333C0.999756 13.3087 1.98311 15.6828 3.7335 17.4332C5.48388 19.1835 7.85791 20.1669 10.3333 20.1669C12.8087 20.1669 15.1828 19.1835 16.9332 17.4332Z" stroke="#A7A7A7" stroke-width="2" stroke-linecap="round" stroke-linejoin="round"/>
</svg>
