<svg width="185" height="185" viewBox="0 0 185 185" fill="none" xmlns="http://www.w3.org/2000/svg">
<rect width="185" height="185" rx="92.5" fill="#E5E5E5"/>
<path d="M112.456 113.786C117.599 113.786 121.768 117.955 121.768 123.098V133.752L121.726 134.329C120.072 145.643 109.909 151.084 92.8556 151.084C75.8634 151.084 65.5381 145.705 63.3093 134.521L63.2324 133.741V123.098C63.2324 117.955 67.4017 113.786 72.5449 113.786H112.456ZM115.084 81.8566L147.045 81.8571C152.188 81.8571 156.357 86.0264 156.357 91.1696V101.823L156.315 102.4C154.662 113.715 144.499 119.155 127.445 119.155L126.55 119.147C124.908 113.278 119.698 108.898 113.407 108.495L112.456 108.464L107.548 108.468C112.976 104.078 116.447 97.364 116.447 89.8392C116.447 87.0402 115.966 84.3534 115.084 81.8566ZM37.9556 81.8571L69.9165 81.8566C69.034 84.3534 68.5538 87.0402 68.5538 89.8392C68.5538 96.9213 71.6282 103.285 76.5152 107.67L77.4524 108.468L72.5449 108.464C65.8281 108.464 60.1683 112.989 58.4477 119.157L58.2663 119.155C41.2741 119.155 30.9488 113.777 28.72 102.592L28.6431 101.812V91.1696C28.6431 86.0264 32.8124 81.8571 37.9556 81.8571ZM92.5002 71.2142C102.787 71.2142 111.125 79.5529 111.125 89.8392C111.125 100.126 102.787 108.464 92.5002 108.464C82.2139 108.464 73.8752 100.126 73.8752 89.8392C73.8752 79.5529 82.2139 71.2142 92.5002 71.2142ZM127.09 39.2856C137.376 39.2856 145.715 47.6243 145.715 57.9106C145.715 68.1969 137.376 76.5356 127.09 76.5356C116.803 76.5356 108.465 68.1969 108.465 57.9106C108.465 47.6243 116.803 39.2856 127.09 39.2856ZM57.9109 39.2856C68.1972 39.2856 76.5359 47.6243 76.5359 57.9106C76.5359 68.1969 68.1972 76.5356 57.9109 76.5356C47.6246 76.5356 39.2859 68.1969 39.2859 57.9106C39.2859 47.6243 47.6246 39.2856 57.9109 39.2856Z" fill="#979797"/>
</svg>
