<svg width="68" height="70" viewBox="0 0 68 70" fill="none" xmlns="http://www.w3.org/2000/svg">
<path d="M63.6752 45.7955C57.0669 61.5628 39.623 68.3353 25.9554 67.1805C22.2236 66.8653 14.7151 66.2309 8.85245 60.5715C-2.40642 49.703 -0.672438 26.9849 10.1055 13.6097C11.4935 11.8873 21.1009 0.347075 36.0722 0.501536C47.0334 0.614647 54.7269 6.93517 55.6624 7.72259C56.8442 8.7173 59.4508 11.0811 61.7999 14.831C67.3196 23.6421 67.8048 35.9425 63.6752 45.7955Z" fill="url(#paint0_linear_5_431)"/>
<path d="M28.6163 54.335L27.148 64.6785H44.1833L41.9645 54.335H28.6163Z" fill="url(#paint1_linear_5_431)"/>
<path d="M0 21.2155V52.0022C0 54.5348 1.97708 56.6058 4.45731 56.6711C15.4732 56.9611 54.0012 57.6642 64.4875 57.5064C66.2899 57.4793 67.7499 56.007 67.8019 54.1678C68.0041 47.0157 68.3325 29.8171 67.1172 21.8324C66.8613 20.151 65.4709 18.8936 63.8047 18.8392C54.5748 18.5378 13.7326 17.5807 3.25113 17.821C1.44344 17.8624 0 19.3697 0 21.2155Z" fill="url(#paint2_linear_5_431)"/>
<path d="M1.89233 21.0656V50.3151C1.89233 51.7937 3.05514 52.9986 4.50356 53.0207L62.9788 53.7582C64.4148 53.7801 65.5919 52.6008 65.5973 51.1348L65.6951 22.1466C65.6989 21.0984 64.8808 20.2395 63.8542 20.214L3.98636 18.9794C2.83821 18.9509 1.89233 19.8932 1.89233 21.0656Z" fill="url(#paint3_linear_5_431)"/>
<path d="M66.0375 54.957C66.037 54.957 66.0366 54.957 66.0361 54.957L1.89098 53.8413C1.8462 53.8405 1.81054 53.8028 1.81129 53.7572C1.81204 53.7113 1.84946 53.6765 1.89376 53.6758L66.0389 54.7914C66.0837 54.7923 66.1193 54.8299 66.1186 54.8756C66.1178 54.9208 66.0816 54.957 66.0375 54.957Z" fill="#91B3FA"/>
<path d="M34.5978 56.3196C34.1851 56.3196 33.8493 55.9768 33.8493 55.5556C33.8493 55.1343 34.1851 54.7915 34.5978 54.7915C35.0105 54.7915 35.3463 55.1343 35.3463 55.5556C35.3463 55.9768 35.0105 56.3196 34.5978 56.3196ZM34.5978 54.957C34.2745 54.957 34.0115 55.2255 34.0115 55.5556C34.0115 55.8856 34.2745 56.1541 34.5978 56.1541C34.9211 56.1541 35.1841 55.8856 35.1841 55.5556C35.1841 55.2255 34.9211 54.957 34.5978 54.957Z" fill="#91B3FA"/>
<path d="M47.8526 67.4288H22.9203C22.2429 67.4288 21.7343 66.9366 21.8653 66.4079L22.1852 65.1163C22.2814 64.728 22.7 64.4428 23.1972 64.4269L47.2328 63.6613C47.7523 63.6448 48.2122 63.9262 48.3254 64.3299L48.9021 66.3871C49.052 66.9215 48.5409 67.4288 47.8526 67.4288Z" fill="url(#paint4_linear_5_431)"/>
<path d="M36.3419 64.7766C36.2977 64.7766 36.2615 64.7403 36.2609 64.695C36.2602 64.6493 36.296 64.6117 36.3408 64.6111L37.3707 64.5957C37.4138 64.5959 37.4523 64.6316 37.453 64.6773C37.4536 64.723 37.4179 64.7606 37.3731 64.7613L36.3431 64.7766C36.3428 64.7766 36.3423 64.7766 36.3419 64.7766Z" fill="#91B3FA"/>
<path d="M22.7884 66.7165C22.7841 66.7165 22.7798 66.7162 22.7754 66.7154C22.7312 66.7082 22.7011 66.6658 22.7082 66.6207L22.8552 65.6813C22.9341 65.1766 23.3547 64.8049 23.8554 64.7974L34.7796 64.6343C34.78 64.6343 34.7805 64.6343 34.7809 64.6343C34.8251 64.6343 34.8612 64.6706 34.8619 64.7158C34.8625 64.7616 34.8268 64.7992 34.782 64.7998L23.8577 64.9629C23.4361 64.9692 23.0817 65.2823 23.0152 65.7073L22.8683 66.6467C22.8619 66.6875 22.8275 66.7165 22.7884 66.7165Z" fill="#91B3FA"/>
<path d="M51.8169 53.6548L12.6078 53.0979V9.99586C12.6078 9.08166 13.3338 8.34058 14.2294 8.34058H50.3364C51.1744 8.34058 51.8538 9.03408 51.8538 9.88955L51.8169 53.6548Z" fill="#91B3FA"/>
<path d="M50.559 53.6439L13.7676 53.1148V11.1379C13.7676 10.2318 14.4783 9.49731 15.3549 9.49731H49.0736C49.894 9.49731 50.559 10.1847 50.559 11.0326L50.559 53.6439Z" fill="#BDD0FB"/>
<g opacity="0.75">
<path opacity="0.76" d="M47.3384 36.2335H17.7841C17.667 36.2335 17.5721 36.1366 17.5721 36.0171V21.648C17.5721 21.5285 17.667 21.4316 17.7841 21.4316H47.3384C47.4554 21.4316 47.5503 21.5285 47.5503 21.648V36.0171C47.5503 36.1366 47.4554 36.2335 47.3384 36.2335Z" fill="white"/>
<path opacity="0.76" d="M48.8484 42.1735H15.7305C15.6722 42.1735 15.625 42.1253 15.625 42.0659V39.0044C15.625 38.9449 15.6722 38.8967 15.7305 38.8967H48.8484C48.9067 38.8967 48.9539 38.945 48.9539 39.0044V42.0659C48.9539 42.1253 48.9067 42.1735 48.8484 42.1735Z" fill="white"/>
<path opacity="0.76" d="M48.7203 47.6037H15.7282C15.6352 47.6037 15.5598 47.5268 15.5598 47.4318V44.4988C15.5598 44.4039 15.6352 44.3269 15.7282 44.3269H48.7203C48.8133 44.3269 48.8887 44.4039 48.8887 44.4988V47.4318C48.8887 47.5268 48.8133 47.6037 48.7203 47.6037Z" fill="white"/>
<path opacity="0.76" d="M48.7709 52.6694H15.8272C15.7209 52.6694 15.6346 52.5814 15.6346 52.4728V49.5892C15.6346 49.4806 15.7209 49.3926 15.8272 49.3926H48.7709C48.8773 49.3926 48.9635 49.4806 48.9635 49.5892V52.4728C48.9635 52.5814 48.8773 52.6694 48.7709 52.6694Z" fill="white"/>
</g>
<path d="M3.89075 37.4978C3.89075 37.4978 8.09796 48.8242 9.42717 51.1804C10.9701 53.9155 15.4763 52.1726 15.2521 49.8836C15.0279 47.5946 9.76304 38.1335 9.76304 38.1335L3.89075 37.4978Z" fill="url(#paint5_linear_5_431)"/>
<path d="M9.57559 29.247L35.7249 19.9922L35.4503 45.0372L8.86096 38.9812L9.57559 29.247Z" fill="url(#paint6_linear_5_431)"/>
<path d="M35.7494 45.4582C37.1682 45.4582 38.3184 39.6957 38.3184 32.5874C38.3184 25.479 37.1682 19.7166 35.7494 19.7166C34.3305 19.7166 33.1803 25.479 33.1803 32.5874C33.1803 39.6957 34.3305 45.4582 35.7494 45.4582Z" fill="#7D97F4"/>
<path d="M35.9444 44.578C35.7122 44.3369 35.2064 43.407 34.7727 41.0023C34.3536 38.6784 34.1228 35.6641 34.1228 32.5147C34.1228 29.3654 34.3536 26.3511 34.7727 24.0272C35.2064 21.6224 35.7122 20.6925 35.9444 20.4514C36.1766 20.6925 36.6825 21.6224 37.1161 24.0272C37.5352 26.3511 37.7661 29.3654 37.7661 32.5147C37.7661 35.6641 37.5352 38.6784 37.1161 41.0023C36.6825 43.407 36.1766 44.3369 35.9444 44.578Z" fill="url(#paint7_linear_5_431)"/>
<mask id="mask0_5_431" style="mask-type:luminance" maskUnits="userSpaceOnUse" x="34" y="20" width="7" height="25">
<path d="M35.9444 44.578C35.7122 44.3369 35.2064 43.407 34.7727 41.0023C34.3536 38.6784 34.1228 35.6641 34.1228 32.5147C34.1228 29.3654 34.3536 26.3511 34.7727 24.0272C35.2064 21.6224 35.7122 20.6925 35.9444 20.4514C36.1766 20.6925 36.6825 21.6224 37.1161 24.0272C37.5352 26.3511 40.8425 29.3654 40.8425 32.5147C40.8425 35.6641 37.5352 38.6784 37.1161 41.0023C36.6825 43.407 36.1766 44.3369 35.9444 44.578Z" fill="white"/>
</mask>
<g mask="url(#mask0_5_431)">
<path d="M39.2374 32.4189C39.2374 34.6059 38.0833 36.3787 35.7991 36.3787C33.5149 36.3787 31.6631 34.6059 31.6631 32.4189C31.6631 30.2321 33.5149 28.4592 35.7991 28.4592C38.0833 28.4592 39.2374 30.2321 39.2374 32.4189Z" fill="url(#paint8_linear_5_431)"/>
</g>
<path d="M5.35808 28.7086C6.58819 28.5628 8.35213 28.5103 10.2593 28.9562C9.63098 32.3068 9.7258 35.7991 10.4525 39.4153H5.07321C4.21555 39.4153 3.48425 38.7794 3.35048 37.9146C3.08239 36.1812 2.75463 33.2678 3.10412 30.9279C3.27948 29.7536 4.20215 28.8457 5.35808 28.7086Z" fill="url(#paint9_linear_5_431)"/>
<path d="M8.58641 31.2749H4.39528C4.25302 31.2749 4.12751 31.1988 4.0595 31.0712C3.99155 30.9436 3.9971 30.7947 4.07437 30.6728C4.10672 30.6218 4.17345 30.6074 4.2234 30.6402C4.27337 30.6732 4.28768 30.7413 4.25534 30.7924C4.22166 30.8455 4.21924 30.9104 4.24884 30.9661C4.27849 31.0217 4.33324 31.0549 4.39528 31.0549H8.58644C8.67834 31.0549 8.75311 30.9786 8.75311 30.8848V30.5803C8.75311 30.4865 8.67834 30.4102 8.58644 30.4102H4.36419C4.30466 30.4102 4.25642 30.3609 4.25642 30.3002C4.25642 30.2395 4.30466 30.1902 4.36419 30.1902H8.58641C8.79719 30.1902 8.96864 30.3652 8.96864 30.5803V30.8848C8.96864 31.0999 8.79719 31.2749 8.58641 31.2749Z" fill="#91B3FA"/>
<path d="M8.21266 33.1697H4.0215C3.87924 33.1697 3.75373 33.0935 3.68572 32.966C3.61777 32.8384 3.62332 32.6895 3.70059 32.5675C3.73294 32.5166 3.79969 32.5022 3.84962 32.5349C3.89957 32.568 3.91388 32.6361 3.88153 32.6871C3.84785 32.7403 3.84544 32.8052 3.87504 32.8608C3.90468 32.9164 3.95943 32.9496 4.02148 32.9496H8.21264C8.30454 32.9496 8.37931 32.8734 8.37931 32.7795V32.4752C8.37931 32.3813 8.30454 32.305 8.21264 32.305H3.99041C3.93088 32.305 3.88264 32.2557 3.88264 32.195C3.88264 32.1342 3.93088 32.085 3.99041 32.085H8.21264C8.42339 32.085 8.59486 32.26 8.59486 32.4752V32.7795C8.59486 32.9946 8.42341 33.1697 8.21266 33.1697Z" fill="#91B3FA"/>
<path d="M13.3751 28.5692C13.3294 28.5692 13.287 28.5393 13.2724 28.4926C13.2544 28.4346 13.2858 28.3728 13.3424 28.3543L33.1476 21.921C33.2043 21.9026 33.2649 21.9346 33.283 21.9925C33.301 22.0504 33.2697 22.1122 33.213 22.1307L13.4078 28.564C13.3969 28.5675 13.3859 28.5692 13.3751 28.5692Z" fill="#BDD0FB"/>
<path d="M10.697 29.6867C10.6545 29.6867 10.6142 29.6609 10.5972 29.6183C10.5746 29.562 10.601 29.4978 10.6562 29.4748L11.6755 29.0495C11.7305 29.0264 11.7935 29.0535 11.816 29.1098C11.8385 29.166 11.8121 29.2302 11.757 29.2532L10.7377 29.6785C10.7244 29.6841 10.7105 29.6867 10.697 29.6867Z" fill="#BDD0FB"/>
<path d="M8.5864 35.3887H4.39526C4.253 35.3887 4.12751 35.3125 4.05953 35.185C3.99155 35.0574 3.99708 34.9084 4.07438 34.7865C4.10673 34.7355 4.17345 34.7211 4.2234 34.7539C4.27337 34.7869 4.28769 34.855 4.25534 34.906C4.22162 34.9592 4.2192 35.0242 4.24887 35.0798C4.27852 35.1354 4.33324 35.1686 4.39526 35.1686H8.58642C8.67832 35.1686 8.75309 35.0923 8.75309 34.9985V34.6941C8.75309 34.6003 8.67832 34.524 8.58642 34.524H4.36417C4.30464 34.524 4.2564 34.4747 4.2564 34.414C4.2564 34.3532 4.30464 34.304 4.36417 34.304H8.5864C8.79717 34.304 8.96862 34.479 8.96862 34.6941V34.9985C8.96862 35.2136 8.79717 35.3887 8.5864 35.3887Z" fill="#91B3FA"/>
<path d="M8.97875 37.8518H4.78759C4.64535 37.8518 4.51984 37.7757 4.45186 37.6481C4.38388 37.5205 4.38943 37.3716 4.4667 37.2497C4.49908 37.1986 4.5658 37.1842 4.61573 37.217C4.66568 37.25 4.67999 37.3182 4.64764 37.3691C4.61394 37.4223 4.6115 37.4873 4.6412 37.543C4.67084 37.5985 4.72557 37.6318 4.78759 37.6318H8.97875C9.07065 37.6318 9.14542 37.5555 9.14542 37.4617V37.1572C9.14542 37.0634 9.07065 36.9871 8.97875 36.9871H4.75652C4.69699 36.9871 4.64875 36.9378 4.64875 36.8771C4.64875 36.8164 4.69699 36.7671 4.75652 36.7671H8.97875C9.18952 36.7671 9.36097 36.9421 9.36097 37.1572V37.4617C9.36097 37.6767 9.18952 37.8518 8.97875 37.8518Z" fill="#91B3FA"/>
<path d="M12.7221 51.2435C12.529 51.2435 12.3338 51.2222 12.139 51.1789C11.2869 50.9894 10.5932 50.4158 10.2358 49.6053L6.88734 42.0116C6.86289 41.9563 6.8871 41.8912 6.94137 41.8662C6.99564 41.8412 7.05947 41.866 7.08387 41.9214L10.4324 49.515C10.7615 50.2612 11.4003 50.7894 12.1849 50.9638C12.9561 51.1355 13.7365 50.9318 14.3261 50.405C14.3577 50.3768 14.3894 50.3478 14.4213 50.3181C14.4653 50.2771 14.5334 50.2802 14.5736 50.3251C14.6137 50.37 14.6107 50.4396 14.5667 50.4805C14.5336 50.5114 14.5008 50.5414 14.468 50.5706C13.9755 51.0106 13.3606 51.2435 12.7221 51.2435Z" fill="#91B3FA"/>
<path d="M6.49045 40.9536C6.44934 40.9536 6.41009 40.9295 6.39213 40.8888L6.01857 40.0416C5.99411 39.9863 6.01833 39.9212 6.0726 39.8962C6.12684 39.8713 6.19069 39.896 6.2151 39.9513L6.58866 40.7984C6.61311 40.8538 6.5889 40.9189 6.53463 40.9439C6.52027 40.9505 6.50523 40.9536 6.49045 40.9536Z" fill="#91B3FA"/>
<path d="M38.625 32.3048C38.5689 32.3048 38.5216 32.2605 38.5176 32.2026C38.4431 31.131 38.0793 30.3322 37.4362 29.8282C36.3241 28.9566 34.7372 29.2561 34.7213 29.2594C34.6625 29.2707 34.6064 29.2319 34.5951 29.1722C34.5838 29.1125 34.6221 29.0548 34.6806 29.0433C34.7493 29.0298 36.3793 28.7225 37.5675 29.6536C38.2615 30.1976 38.6536 31.05 38.7326 32.187C38.7368 32.2476 38.6921 32.3002 38.6327 32.3045C38.6301 32.3047 38.6275 32.3048 38.625 32.3048Z" fill="#BDD0FB"/>
<path d="M25.11 11.8445H26.4697C27.0238 11.8445 27.4272 11.9542 27.68 12.1738C27.9327 12.3933 28.0591 12.7425 28.0591 13.2213C28.0591 13.5364 27.9922 13.7999 27.8586 14.012C27.7249 14.2241 27.5427 14.3525 27.3118 14.3971V14.4344C27.6131 14.5113 27.8306 14.6552 27.9643 14.866C28.098 15.0769 28.1648 15.3572 28.1648 15.707C28.1648 16.2007 28.0354 16.587 27.7766 16.8661C27.5178 17.1452 27.1636 17.2847 26.714 17.2847H25.11V11.8445H25.11ZM26.0432 14.0325H26.4989C26.7078 14.0325 26.8549 13.9755 26.9399 13.8613C27.025 13.7473 27.0675 13.5773 27.0675 13.3515C27.0675 13.1258 27.0189 12.9639 26.9217 12.8659C26.8245 12.768 26.6714 12.7189 26.4624 12.7189H26.0432V14.0325ZM26.0432 14.8772V16.3991H26.5426C26.7492 16.3991 26.9029 16.3346 27.0037 16.2056C27.1046 16.0766 27.155 15.8769 27.155 15.6065C27.155 15.1203 26.946 14.8772 26.528 14.8772L26.0432 14.8772Z" fill="url(#paint10_linear_5_431)"/>
<path d="M28.8937 17.2847V11.8445H29.8852V16.3991H31.2595V17.2847H28.8937Z" fill="url(#paint11_linear_5_431)"/>
<path d="M35.5611 14.5571C35.5611 15.4576 35.3958 16.1497 35.0654 16.6334C34.7349 17.1172 34.2622 17.3591 33.6474 17.3591C33.0301 17.3591 32.5561 17.1178 32.2257 16.6353C31.8951 16.1528 31.7299 15.4575 31.7299 14.5496C31.7299 13.6491 31.8951 12.9588 32.2257 12.4788C32.5561 11.9988 33.0325 11.7588 33.6546 11.7588C34.2695 11.7588 34.7409 12.0001 35.0691 12.4826C35.3971 12.9651 35.5611 13.6566 35.5611 14.5571ZM32.7433 14.5571C32.7433 15.1772 32.8198 15.6498 32.9729 15.9748C33.126 16.2998 33.3508 16.4623 33.6473 16.4623C34.2452 16.4623 34.5441 15.8272 34.5441 14.557C34.5441 13.2869 34.2476 12.6518 33.6546 12.6518C33.3533 12.6518 33.126 12.8137 32.9729 13.1374C32.8198 13.4612 32.7433 13.9344 32.7433 14.5571Z" fill="url(#paint12_linear_5_431)"/>
<path d="M37.9488 14.2667H39.5783V17.0576C39.1165 17.2585 38.6256 17.3589 38.1056 17.3589C37.4858 17.3589 37.0089 17.1183 36.6748 16.637C36.3406 16.1558 36.1735 15.4625 36.1735 14.5569C36.1735 13.6838 36.3649 13.0003 36.7477 12.5066C37.1304 12.013 37.6657 11.7661 38.3534 11.7661C38.7787 11.7661 39.1846 11.8777 39.571 12.101L39.2575 12.9271C38.9561 12.7485 38.6742 12.6591 38.4118 12.6591C38.035 12.6591 37.7368 12.831 37.5169 13.1745C37.2969 13.5181 37.1869 13.9864 37.1869 14.5792C37.1869 15.1895 37.2665 15.6572 37.4257 15.9821C37.5848 16.3072 37.8163 16.4696 38.1201 16.4696C38.2805 16.4696 38.4433 16.4486 38.6086 16.4063V15.1598H37.9488V14.2667Z" fill="url(#paint13_linear_5_431)"/>
<path d="M49.1881 25.7913L42.8662 26.1576C42.337 26.1883 41.8816 25.7797 41.8436 25.24L41.3163 17.7537C41.2759 17.1803 41.7207 16.6924 42.2839 16.6924H49.1332C49.6689 16.6924 50.1033 17.1357 50.1033 17.6827V24.8026C50.1033 25.3278 49.7017 25.7616 49.1881 25.7913Z" fill="#7D97F4"/>
<path d="M45.7085 25.265C45.3891 25.265 45.0998 25.0985 44.9344 24.8195C44.0022 23.2475 42.8909 21.1769 42.8909 20.2405C42.8909 18.7771 44.1549 17.5867 45.7085 17.5867C47.2621 17.5867 48.5261 18.7771 48.5261 20.2405C48.5261 21.177 47.4148 23.2475 46.4826 24.8196C46.3172 25.0985 46.0278 25.265 45.7085 25.265ZM45.7085 17.9547C44.3537 17.9547 43.2515 18.9801 43.2515 20.2405C43.2515 20.8952 43.9773 22.4948 45.2428 24.629C45.3423 24.7968 45.5164 24.8969 45.7085 24.8969C45.9006 24.8969 46.0747 24.7968 46.1742 24.6289C47.4397 22.4948 48.1655 20.8952 48.1655 20.2405C48.1655 18.9801 47.0633 17.9547 45.7085 17.9547Z" fill="white"/>
<path d="M45.49 22.0933C44.5268 22.0933 43.7431 21.2934 43.7431 20.3101C43.7431 20.2084 43.8238 20.1261 43.9234 20.1261C44.0229 20.1261 44.1037 20.2084 44.1037 20.3101C44.1037 21.0904 44.7256 21.7253 45.49 21.7253C46.2545 21.7253 46.8764 21.0904 46.8764 20.3101C46.8764 19.5297 46.2545 18.8949 45.49 18.8949C45.048 18.8949 44.6427 19.1026 44.378 19.4649C44.3185 19.5464 44.2055 19.5632 44.1257 19.5024C44.0458 19.4416 44.0294 19.3263 44.0889 19.2448C44.4175 18.7952 44.9412 18.5269 45.49 18.5269C46.4533 18.5269 47.237 19.3268 47.237 20.3101C47.237 21.2934 46.4533 22.0933 45.49 22.0933Z" fill="white"/>
<path d="M63.9561 30.6398L56.2456 30.5103C55.6921 30.501 55.2585 30.0216 55.2933 29.4577L55.8005 21.2558C55.8297 20.7837 56.182 20.3986 56.6413 20.3365L65.3232 19.1626C65.9666 19.0756 66.5105 19.6454 66.4087 20.2996L64.9302 29.805C64.8544 30.292 64.4391 30.6479 63.9561 30.6398Z" fill="#7D97F4"/>
<g opacity="0.9">
<path d="M60.438 28.4505C58.7658 28.4505 57.4055 27.0619 57.4055 25.355C57.4055 23.6482 58.7658 22.2595 60.438 22.2595C62.1101 22.2595 63.4704 23.6482 63.4704 25.355C63.4704 27.0619 62.1101 28.4505 60.438 28.4505ZM60.438 22.7782C59.046 22.7782 57.9137 23.9342 57.9137 25.355C57.9137 26.7759 59.0461 27.9318 60.438 27.9318C61.8299 27.9318 62.9623 26.7759 62.9623 25.355C62.9623 23.9342 61.8299 22.7782 60.438 22.7782Z" fill="white"/>
<path fill-rule="evenodd" clip-rule="evenodd" d="M59.4879 26.5471V24.3217C59.4879 24.0839 59.7415 23.9365 59.9418 24.0578L61.7789 25.1705C61.9751 25.2894 61.9751 25.5794 61.7789 25.6982L59.9418 26.8109C59.7415 26.9323 59.4879 26.7849 59.4879 26.5471Z" fill="white"/>
</g>
<path d="M45.6686 42.4452L41.0374 42.9432C40.4646 43.0048 39.9657 42.5464 39.9657 41.9584V36.5017C39.9657 36.0093 40.3201 35.5917 40.7976 35.5216L45.4287 34.8409C46.0135 34.7549 46.5371 35.218 46.5371 35.821V41.4604C46.5371 41.9672 46.1623 42.3922 45.6686 42.4452Z" fill="#7D97F4"/>
<path d="M42.8783 40.6353C42.3575 40.6353 41.816 40.4054 41.6557 40.0631C41.4722 39.6714 41.8377 39.3924 41.9541 39.3162C42.3072 39.0851 42.6213 39.0057 42.8874 39.0804C43.1643 39.158 43.2766 39.3728 43.2885 39.3971L42.929 39.5809L42.9312 39.5852C42.9294 39.5818 42.8839 39.502 42.7732 39.4741C42.6693 39.4478 42.4805 39.4592 42.1711 39.6617C42.0402 39.7474 41.9888 39.8229 42.0184 39.886C42.122 40.1072 42.7601 40.3319 43.2307 40.1718C43.3873 40.1185 43.5235 39.6525 43.3916 38.5147C43.2952 37.6832 43.101 36.874 43.0991 36.8659C43.081 36.791 43.1056 36.7121 43.1627 36.6616C43.2199 36.6111 43.3 36.5976 43.3699 36.6267C43.4177 36.6465 44.5428 37.1218 44.8486 38.0193C44.9874 38.4268 44.9374 38.8503 44.6999 39.2781C44.6451 39.3767 44.5224 39.4113 44.4259 39.3555C44.3293 39.2996 44.2953 39.1744 44.3501 39.0758C44.5303 38.7511 44.5693 38.45 44.4692 38.1552C44.3209 37.7184 43.8975 37.3911 43.5842 37.2C43.6499 37.5218 43.7352 37.9866 43.7909 38.4665C43.939 39.7446 43.8015 40.4102 43.3578 40.5611C43.2088 40.6118 43.0446 40.6353 42.8783 40.6353Z" fill="white"/>
<path d="M60.4595 17.9381H53.4539C52.9181 17.9381 52.4838 17.4947 52.4838 16.9478V9.77742C52.4838 9.26147 52.8718 8.832 53.3756 8.79037L60.8396 8.17371C61.4276 8.12514 61.9216 8.61906 61.8863 9.22017L61.4278 17.0072C61.3971 17.5301 60.9727 17.9381 60.4595 17.9381Z" fill="#7D97F4"/>
<path d="M58.807 11.3306C58.2955 10.8175 57.4978 10.9718 56.9486 11.4425C56.8699 11.5099 56.7558 11.5107 56.676 11.4446C56.1195 10.9839 55.3227 10.8436 54.82 11.3657C54.2743 11.9325 54.2819 12.8435 54.8372 13.4006L56.695 15.2647C56.7794 15.3494 56.9151 15.3482 56.9981 15.262L58.8242 13.3656C59.3699 12.7988 59.3622 11.8877 58.807 11.3306Z" fill="white"/>
<path d="M54.7208 31.6616C55.2715 29.7018 54.1615 27.6573 52.2415 27.0951C50.3216 26.533 48.3187 27.666 47.768 29.6259C47.2173 31.5858 48.3273 33.6303 50.2473 34.1924C52.1673 34.7546 54.1701 33.6215 54.7208 31.6616Z" fill="#7D97F4"/>
<path d="M50.3682 29.413C50.3682 29.3179 50.2927 29.2407 50.1994 29.2407H49.5869C49.4937 29.2407 49.4182 29.3179 49.4182 29.413V32.1395C49.4182 32.2347 49.4937 32.3118 49.5869 32.3118H50.1994C50.2926 32.3118 50.3682 32.2347 50.3682 32.1395V29.413Z" fill="white"/>
<path d="M52.4417 29.2408H51.8461V28.5055C51.8461 28.2666 51.7082 28.1094 51.4741 28.1094H51.4591C51.225 28.1094 51.0352 28.2849 51.0352 28.5238L50.826 29.261C50.7328 29.261 50.5793 29.3291 50.5793 29.4242V32.2504C50.5793 32.3456 50.8107 32.4735 50.9039 32.4735H51.0352H52.4417C52.7918 32.4735 53.0601 32.133 53.0601 31.7755V29.8991C53.0601 29.5417 52.7918 29.2408 52.4417 29.2408Z" fill="white"/>
<path d="M59.1692 67.5337C59.1692 67.5337 59.2919 68.2051 59.3551 68.8704C59.3799 69.1304 59.1855 69.3582 58.9299 69.3716C58.0617 69.4169 56.2044 69.5068 55.5375 69.483C55.4372 69.4794 55.3707 69.3753 55.4069 69.2798C55.4372 69.1997 55.4966 69.1347 55.5726 69.0981L58.6281 67.6284L59.1692 67.5337Z" fill="url(#paint14_linear_5_431)"/>
<path d="M59.2608 67.1377L59.1748 67.9431C59.1748 67.9431 58.6396 68.2038 58.2698 67.9197L58.484 67.021L59.2608 67.1377Z" fill="url(#paint15_linear_5_431)"/>
<path d="M59.0491 52.0137C59.0914 52.2234 59.3639 62.4955 58.3311 67.1101C58.3142 67.1854 58.3522 67.2625 58.4225 67.291C58.5882 67.3582 58.9126 67.4547 59.3004 67.4642C59.4205 67.4672 59.5274 67.3865 59.5602 67.2685C59.8577 66.1973 61.2813 60.8309 61.4258 55.7164C61.5872 50.0014 61.424 55.5218 61.424 55.5218L61.265 51.9917L59.0491 52.0137Z" fill="url(#paint16_linear_5_431)"/>
<path d="M62.7027 67.8503C62.7027 67.8503 62.8911 68.1881 63.0789 69.0886C63.1128 69.2512 63.0027 69.4082 62.8408 69.4261C62.5543 69.4577 62.1131 69.499 61.7594 69.4999C61.5963 69.5004 61.4677 69.3567 61.4858 69.1913C61.5219 68.8616 61.6389 68.3201 62.012 67.8953L62.7027 67.8503Z" fill="url(#paint17_linear_5_431)"/>
<path d="M62.8557 66.814L62.6485 68.0328C62.6485 68.0328 62.434 68.1989 62.0056 68.0842L62.0976 66.7742L62.8557 66.814Z" fill="url(#paint18_linear_5_431)"/>
<path d="M63.3103 52.2875C64.2409 57.6995 63.2447 65.6868 62.8981 67.2515C62.8769 67.3474 62.802 67.4213 62.7073 67.4383C62.5463 67.4671 62.2812 67.492 62.0188 67.417C61.9284 67.3911 61.8643 67.3088 61.8597 67.213C61.7995 65.9513 61.8142 58.2015 60.9658 55.1471C60.9228 54.9923 60.8287 54.8579 60.6993 54.7659L59.0973 53.6266L58.9578 51.7612L63.3103 52.2875Z" fill="url(#paint19_linear_5_431)"/>
<path d="M57.6076 42.071C60.244 42.0009 63.1605 42.7238 63.1605 42.7238C63.9903 47.3977 63.3922 52.8039 63.3922 52.8039C61.3559 53.3702 59.0449 52.5121 59.0449 52.5121C58.6873 50.5586 57.0527 45.067 57.0527 45.067C55.7628 44.9163 54.698 44.5472 53.8193 44.0541C54.4786 43.2587 54.7835 42.2519 54.9144 41.6572C55.8495 41.9439 56.7944 42.0927 57.6076 42.071Z" fill="url(#paint20_linear_5_431)"/>
<path d="M49.7817 38.1823C50.0378 37.8604 50.367 38.0083 50.367 38.0083C50.7707 39.6777 52.818 41.0145 54.9145 41.6573C54.7836 42.252 54.4787 43.2588 53.8194 44.0541C50.3317 42.0969 49.7817 38.1823 49.7817 38.1823Z" fill="url(#paint21_linear_5_431)"/>
<path d="M49.8453 38.2628C49.8191 38.351 50.1342 38.4819 50.3156 38.1204C50.3204 37.9479 50.4163 37.2083 50.314 37.0688C49.7695 36.326 48.7186 35.3984 48.7186 35.3984C48.5442 35.5776 48.6909 35.7504 48.6909 35.7504L49.2015 36.2831C49.0975 36.4791 48.9701 36.6451 48.9119 36.8816C48.8678 37.0607 48.8975 37.2514 48.9875 37.4131C49.0777 37.5755 49.2008 37.7864 49.3168 37.9513C49.5364 38.2635 49.8453 38.2628 49.8453 38.2628Z" fill="url(#paint22_linear_5_431)"/>
<path d="M49.4259 36.6296L49.8903 37.0238L50.0387 37.4193L49.6323 37.8884C49.6323 37.8884 49.4868 37.1022 49.3826 36.9328C49.2783 36.7634 49.3308 36.6804 49.4259 36.6296Z" fill="url(#paint23_linear_5_431)"/>
<path d="M62.1734 45.3398L63.1604 42.7236C63.1604 42.7236 65.6394 44.4079 66.0647 46.5699C65.5996 46.6094 64.7539 46.7412 63.929 47.1765C63.7373 46.1556 62.1734 45.3398 62.1734 45.3398Z" fill="url(#paint24_linear_5_431)"/>
<path d="M60.044 47.8135C60.044 47.8135 62.8243 49.3818 63.7446 48.0105C63.9356 47.7258 63.9793 47.4442 63.9291 47.1767C64.754 46.7414 65.5997 46.6096 66.0648 46.5701C66.193 47.2218 66.1349 47.9169 65.7656 48.6225C64.1597 51.6903 59.6846 48.513 59.6846 48.513L60.044 47.8135Z" fill="url(#paint25_linear_5_431)"/>
<path d="M60.258 39.8599L61.1202 42.3285C61.1345 42.3694 61.1184 42.415 61.0814 42.4363C60.8539 42.5676 60.0334 42.9488 59.0344 42.3158C58.9303 42.2499 58.8589 42.1414 58.842 42.0175L58.5503 39.8765L60.258 39.8599Z" fill="url(#paint26_linear_5_431)"/>
<path d="M58.411 37.584C58.411 37.584 57.5062 39.3633 57.631 40.0773C57.7558 40.7912 58.8972 40.7288 59.8888 40.1382L60.5677 38.2199L58.411 37.584Z" fill="url(#paint27_linear_5_431)"/>
<path d="M59.8359 39.2C59.7952 39.1821 59.7798 39.1316 59.8037 39.0935C59.8765 38.9777 60.0126 38.7415 60.0549 38.5355C60.0549 38.5355 60.2195 38.4256 59.631 38.2878C59.0424 38.1501 58.1647 37.9359 57.9759 37.4275C57.7918 36.9318 58.2516 35.6764 59.0131 36.6657C59.0421 36.7034 59.0982 36.7037 59.1264 36.6654C59.2481 36.5004 59.5692 36.1572 60.0212 36.359C60.4442 36.5478 60.4946 36.8624 60.4903 37.0212C60.489 37.068 60.5303 37.1039 60.5752 37.0947C60.7878 37.0512 61.2985 37.0106 61.542 37.5434C61.7426 37.9823 61.6172 38.233 61.502 38.3562C61.4647 38.3961 61.4819 38.4611 61.5337 38.4767C61.6741 38.5191 61.8559 38.6385 61.841 38.9733C61.8203 39.4363 61.3131 39.4005 61.1686 39.3808C61.1449 39.3776 61.1211 39.3861 61.1053 39.4043C60.9829 39.5453 60.431 40.1442 59.8283 40.2216C59.7761 40.2283 59.7351 40.176 59.7518 40.1251L60.0057 39.3478C60.0174 39.3117 60.0002 39.2724 59.966 39.2573L59.8359 39.2Z" fill="url(#paint28_linear_5_431)"/>
<path d="M59.732 39.3111C59.732 39.3111 60.3837 38.8453 60.4353 39.2317C60.4868 39.6181 59.8498 39.7979 59.5321 39.6567L59.732 39.3111Z" fill="url(#paint29_linear_5_431)"/>
<path d="M60.6123 50.2921L59.0978 44.8932C59.0806 44.8319 59.0294 44.7872 58.9674 44.7798C58.693 44.7471 57.8979 44.6554 56.9798 44.5761C55.874 44.4806 54.5899 44.4033 53.8225 44.4691C53.7134 44.4784 53.6475 44.5962 53.696 44.6964C54.1324 45.5976 55.9274 49.2634 56.8262 50.4643C56.856 50.5041 56.9021 50.5274 56.9511 50.5269L60.465 50.4936C60.5672 50.4926 60.6405 50.3924 60.6123 50.2921Z" fill="url(#paint30_linear_5_431)"/>
<path d="M60.2465 48.9877C60.2465 48.9877 60.4574 48.1022 60.3723 47.788C60.2872 47.4739 60.1223 47.0699 59.5727 47.1597C59.0231 47.2494 58.3748 47.4858 58.3748 47.4858C58.3748 47.4858 58.4076 47.895 58.8253 47.763L58.5662 47.9676C58.5662 47.9676 58.6033 48.2952 58.9561 48.1202L58.7152 48.3915C58.7152 48.3915 58.8667 48.6606 59.1263 48.488C59.3859 48.3154 59.5103 49.0944 60.2465 48.9877Z" fill="url(#paint31_linear_5_431)"/>
<path d="M57.0808 46.1877C57.0808 46.4384 56.8818 46.6415 56.6362 46.6415C56.3907 46.6415 56.1917 46.4384 56.1917 46.1877C56.1917 45.937 56.3907 45.7339 56.6362 45.7339C56.8818 45.7339 57.0808 45.937 57.0808 46.1877Z" fill="#7D97F4"/>
<path d="M58.9268 46.4867L59.0394 46.4528L58.731 45.3851C58.6809 45.2114 58.5435 45.0809 58.3726 45.0445C57.3952 44.8363 54.8211 44.7937 54.712 44.792L54.7102 44.9118C54.7368 44.9123 57.3822 44.9559 58.3486 45.1617C58.4772 45.1891 58.5806 45.2877 58.6185 45.419L58.9268 46.4867Z" fill="#91B3FA"/>
<defs>
<linearGradient id="paint0_linear_5_431" x1="70.3773" y1="75.992" x2="21.2178" y2="24.0114" gradientUnits="userSpaceOnUse">
<stop stop-color="#DAE3FE"/>
<stop offset="1" stop-color="#E9EFFD"/>
</linearGradient>
<linearGradient id="paint1_linear_5_431" x1="35.4928" y1="52.1468" x2="35.8352" y2="75.9678" gradientUnits="userSpaceOnUse">
<stop stop-color="#09005D"/>
<stop offset="1" stop-color="#1A0F91"/>
</linearGradient>
<linearGradient id="paint2_linear_5_431" x1="38.6681" y1="-3.17331" x2="32.507" y2="47.4593" gradientUnits="userSpaceOnUse">
<stop stop-color="#09005D"/>
<stop offset="1" stop-color="#1A0F91"/>
</linearGradient>
<linearGradient id="paint3_linear_5_431" x1="67.4031" y1="55.2609" x2="3.53764" y2="20.972" gradientUnits="userSpaceOnUse">
<stop stop-color="#FE7062"/>
<stop offset="1" stop-color="#FF928E"/>
</linearGradient>
<linearGradient id="paint4_linear_5_431" x1="34.2525" y1="51.9129" x2="35.7933" y2="71.0321" gradientUnits="userSpaceOnUse">
<stop stop-color="#09005D"/>
<stop offset="1" stop-color="#1A0F91"/>
</linearGradient>
<linearGradient id="paint5_linear_5_431" x1="3.20403" y1="30.158" x2="12.2126" y2="49.1403" gradientUnits="userSpaceOnUse">
<stop stop-color="#09005D"/>
<stop offset="1" stop-color="#1A0F91"/>
</linearGradient>
<linearGradient id="paint6_linear_5_431" x1="18.5046" y1="22.5994" x2="35.7674" y2="52.7188" gradientUnits="userSpaceOnUse">
<stop stop-color="#4042E2"/>
<stop offset="1" stop-color="#4F52FF"/>
</linearGradient>
<linearGradient id="paint7_linear_5_431" x1="35.6001" y1="32.8868" x2="47.0185" y2="21.0429" gradientUnits="userSpaceOnUse">
<stop stop-color="#4042E2"/>
<stop offset="1" stop-color="#4F52FF"/>
</linearGradient>
<linearGradient id="paint8_linear_5_431" x1="41.8348" y1="28.7687" x2="28.0957" y2="36.629" gradientUnits="userSpaceOnUse">
<stop stop-color="#09005D"/>
<stop offset="1" stop-color="#1A0F91"/>
</linearGradient>
<linearGradient id="paint9_linear_5_431" x1="19.3163" y1="10.2763" x2="14.2242" y2="19.9206" gradientUnits="userSpaceOnUse">
<stop stop-color="#09005D"/>
<stop offset="1" stop-color="#1A0F91"/>
</linearGradient>
<linearGradient id="paint10_linear_5_431" x1="26.7911" y1="12.5725" x2="30.0427" y2="-13.4134" gradientUnits="userSpaceOnUse">
<stop stop-color="#4042E2"/>
<stop offset="1" stop-color="#4F52FF"/>
</linearGradient>
<linearGradient id="paint11_linear_5_431" x1="30.2636" y1="13.007" x2="33.5152" y2="-12.9789" gradientUnits="userSpaceOnUse">
<stop stop-color="#4042E2"/>
<stop offset="1" stop-color="#4F52FF"/>
</linearGradient>
<linearGradient id="paint12_linear_5_431" x1="33.7784" y1="13.4467" x2="37.03" y2="-12.5392" gradientUnits="userSpaceOnUse">
<stop stop-color="#4042E2"/>
<stop offset="1" stop-color="#4F52FF"/>
</linearGradient>
<linearGradient id="paint13_linear_5_431" x1="38.0756" y1="13.9843" x2="41.3272" y2="-12.0016" gradientUnits="userSpaceOnUse">
<stop stop-color="#4042E2"/>
<stop offset="1" stop-color="#4F52FF"/>
</linearGradient>
<linearGradient id="paint14_linear_5_431" x1="55.6083" y1="66.6388" x2="67.2113" y2="78.7693" gradientUnits="userSpaceOnUse">
<stop stop-color="#09005D"/>
<stop offset="1" stop-color="#1A0F91"/>
</linearGradient>
<linearGradient id="paint15_linear_5_431" x1="59.2644" y1="67.5301" x2="58.2662" y2="67.5394" gradientUnits="userSpaceOnUse">
<stop stop-color="#FEBBBA"/>
<stop offset="1" stop-color="#FF928E"/>
</linearGradient>
<linearGradient id="paint16_linear_5_431" x1="-278.016" y1="-366.744" x2="-287.281" y2="-377.965" gradientUnits="userSpaceOnUse">
<stop stop-color="#09005D"/>
<stop offset="1" stop-color="#1A0F91"/>
</linearGradient>
<linearGradient id="paint17_linear_5_431" x1="58.1071" y1="64.2482" x2="69.7107" y2="76.3792" gradientUnits="userSpaceOnUse">
<stop stop-color="#09005D"/>
<stop offset="1" stop-color="#1A0F91"/>
</linearGradient>
<linearGradient id="paint18_linear_5_431" x1="62.8615" y1="67.4429" x2="61.9997" y2="67.451" gradientUnits="userSpaceOnUse">
<stop stop-color="#FEBBBA"/>
<stop offset="1" stop-color="#FF928E"/>
</linearGradient>
<linearGradient id="paint19_linear_5_431" x1="-276.421" y1="-368.063" x2="-285.685" y2="-379.284" gradientUnits="userSpaceOnUse">
<stop stop-color="#09005D"/>
<stop offset="1" stop-color="#1A0F91"/>
</linearGradient>
<linearGradient id="paint20_linear_5_431" x1="50.9657" y1="27.6164" x2="63.05" y2="51.927" gradientUnits="userSpaceOnUse">
<stop stop-color="#4042E2"/>
<stop offset="1" stop-color="#4F52FF"/>
</linearGradient>
<linearGradient id="paint21_linear_5_431" x1="54.9083" y1="40.9861" x2="49.8083" y2="41.0335" gradientUnits="userSpaceOnUse">
<stop stop-color="#FEBBBA"/>
<stop offset="1" stop-color="#FF928E"/>
</linearGradient>
<linearGradient id="paint22_linear_5_431" x1="50.8021" y1="39.6422" x2="48.8487" y2="35.7317" gradientUnits="userSpaceOnUse">
<stop stop-color="#FEBBBA"/>
<stop offset="1" stop-color="#FF928E"/>
</linearGradient>
<linearGradient id="paint23_linear_5_431" x1="49.8" y1="37.5156" x2="48.3095" y2="35.3167" gradientUnits="userSpaceOnUse">
<stop stop-color="#FEBBBA"/>
<stop offset="1" stop-color="#FF928E"/>
</linearGradient>
<linearGradient id="paint24_linear_5_431" x1="54.5798" y1="25.8197" x2="66.6641" y2="50.1303" gradientUnits="userSpaceOnUse">
<stop stop-color="#4042E2"/>
<stop offset="1" stop-color="#4F52FF"/>
</linearGradient>
<linearGradient id="paint25_linear_5_431" x1="66.1366" y1="48.2512" x2="59.6827" y2="48.3113" gradientUnits="userSpaceOnUse">
<stop stop-color="#FEBBBA"/>
<stop offset="1" stop-color="#FF928E"/>
</linearGradient>
<linearGradient id="paint26_linear_5_431" x1="61.4906" y1="44.8592" x2="58.9439" y2="39.9527" gradientUnits="userSpaceOnUse">
<stop stop-color="#FEBBBA"/>
<stop offset="1" stop-color="#FF928E"/>
</linearGradient>
<linearGradient id="paint27_linear_5_431" x1="107.761" y1="-243.395" x2="108.576" y2="-247.93" gradientUnits="userSpaceOnUse">
<stop stop-color="#FEBBBA"/>
<stop offset="1" stop-color="#FF928E"/>
</linearGradient>
<linearGradient id="paint28_linear_5_431" x1="62.1982" y1="36.0004" x2="58.543" y2="38.8843" gradientUnits="userSpaceOnUse">
<stop stop-color="#09005D"/>
<stop offset="1" stop-color="#1A0F91"/>
</linearGradient>
<linearGradient id="paint29_linear_5_431" x1="108.705" y1="-243.225" x2="109.519" y2="-247.76" gradientUnits="userSpaceOnUse">
<stop stop-color="#FEBBBA"/>
<stop offset="1" stop-color="#FF928E"/>
</linearGradient>
<linearGradient id="paint30_linear_5_431" x1="57.9523" y1="44.0652" x2="54.2499" y2="59.1775" gradientUnits="userSpaceOnUse">
<stop stop-color="#09005D"/>
<stop offset="1" stop-color="#1A0F91"/>
</linearGradient>
<linearGradient id="paint31_linear_5_431" x1="60.3925" y1="48.0724" x2="58.3748" y2="48.0724" gradientUnits="userSpaceOnUse">
<stop stop-color="#FEBBBA"/>
<stop offset="1" stop-color="#FF928E"/>
</linearGradient>
</defs>
</svg>
