<svg width="68" height="65" viewBox="0 0 68 65" fill="none" xmlns="http://www.w3.org/2000/svg">
<g clip-path="url(#clip0_5_1002)">
<path d="M50.8119 10.3825C50.6219 10.3825 50.4678 10.2375 50.4678 10.0587C50.4678 9.87989 50.6219 9.73486 50.8119 9.73486C51.0019 9.73486 51.156 9.87989 51.156 10.0587C51.1559 10.2376 51.0019 10.3825 50.8119 10.3825Z" fill="#A0A8FB"/>
<path d="M48.0571 10.3825C47.8671 10.3825 47.713 10.2375 47.713 10.0587C47.713 9.87989 47.8671 9.73486 48.0571 9.73486C48.2471 9.73486 48.4012 9.87989 48.4012 10.0587C48.401 10.2376 48.2471 10.3825 48.0571 10.3825Z" fill="#A0A8FB"/>
<path d="M45.3021 10.3825C45.1122 10.3825 44.9581 10.2375 44.9581 10.0587C44.9581 9.87989 45.1122 9.73486 45.3021 9.73486C45.4921 9.73486 45.6462 9.87989 45.6462 10.0587C45.6462 10.2376 45.4921 10.3825 45.3021 10.3825Z" fill="#A0A8FB"/>
<path d="M42.5473 10.3825C42.3573 10.3825 42.2032 10.2375 42.2032 10.0587C42.2032 9.87989 42.3573 9.73486 42.5473 9.73486C42.7373 9.73486 42.8914 9.87989 42.8914 10.0587C42.8914 10.2376 42.7373 10.3825 42.5473 10.3825Z" fill="#A0A8FB"/>
<path d="M50.8119 12.9753C50.6219 12.9753 50.4678 12.8303 50.4678 12.6515C50.4678 12.4727 50.6219 12.3276 50.8119 12.3276C51.0019 12.3276 51.156 12.4727 51.156 12.6515C51.1559 12.8303 51.0019 12.9753 50.8119 12.9753Z" fill="#A0A8FB"/>
<path d="M48.0571 12.9753C47.8671 12.9753 47.713 12.8303 47.713 12.6515C47.713 12.4727 47.8671 12.3276 48.0571 12.3276C48.2471 12.3276 48.4012 12.4727 48.4012 12.6515C48.401 12.8303 48.2471 12.9753 48.0571 12.9753Z" fill="#A0A8FB"/>
<path d="M45.3021 12.9753C45.1122 12.9753 44.9581 12.8303 44.9581 12.6515C44.9581 12.4727 45.1122 12.3276 45.3021 12.3276C45.4921 12.3276 45.6462 12.4727 45.6462 12.6515C45.6462 12.8303 45.4921 12.9753 45.3021 12.9753Z" fill="#A0A8FB"/>
<path d="M42.5473 12.9753C42.3573 12.9753 42.2032 12.8303 42.2032 12.6515C42.2032 12.4727 42.3573 12.3276 42.5473 12.3276C42.7373 12.3276 42.8914 12.4727 42.8914 12.6515C42.8914 12.8303 42.7373 12.9753 42.5473 12.9753Z" fill="#A0A8FB"/>
<path d="M50.8119 15.5681C50.6219 15.5681 50.4678 15.4231 50.4678 15.2443C50.4678 15.0654 50.6219 14.9204 50.8119 14.9204C51.0019 14.9204 51.156 15.0654 51.156 15.2443C51.1559 15.4231 51.0019 15.5681 50.8119 15.5681Z" fill="#A0A8FB"/>
<path d="M48.0571 15.5681C47.8671 15.5681 47.713 15.4231 47.713 15.2443C47.713 15.0654 47.8671 14.9204 48.0571 14.9204C48.2471 14.9204 48.4012 15.0654 48.4012 15.2443C48.401 15.4231 48.2471 15.5681 48.0571 15.5681Z" fill="#A0A8FB"/>
<path d="M45.3021 15.5681C45.1122 15.5681 44.9581 15.4231 44.9581 15.2443C44.9581 15.0654 45.1122 14.9204 45.3021 14.9204C45.4921 14.9204 45.6462 15.0654 45.6462 15.2443C45.6462 15.4231 45.4921 15.5681 45.3021 15.5681Z" fill="#A0A8FB"/>
<path d="M42.5473 15.5681C42.3573 15.5681 42.2032 15.4231 42.2032 15.2443C42.2032 15.0654 42.3573 14.9204 42.5473 14.9204C42.7373 14.9204 42.8914 15.0654 42.8914 15.2443C42.8914 15.4231 42.7373 15.5681 42.5473 15.5681Z" fill="#A0A8FB"/>
<path d="M39.7142 10.3825C39.5242 10.3825 39.3701 10.2375 39.3701 10.0587C39.3701 9.87989 39.5242 9.73486 39.7142 9.73486C39.9042 9.73486 40.0583 9.87989 40.0583 10.0587C40.0583 10.2376 39.9042 10.3825 39.7142 10.3825Z" fill="#A0A8FB"/>
<path d="M39.7142 12.9753C39.5242 12.9753 39.3701 12.8303 39.3701 12.6515C39.3701 12.4727 39.5242 12.3276 39.7142 12.3276C39.9042 12.3276 40.0583 12.4727 40.0583 12.6515C40.0583 12.8303 39.9042 12.9753 39.7142 12.9753Z" fill="#A0A8FB"/>
<path d="M39.7142 15.5681C39.5242 15.5681 39.3701 15.4231 39.3701 15.2443C39.3701 15.0654 39.5242 14.9204 39.7142 14.9204C39.9042 14.9204 40.0583 15.0654 40.0583 15.2443C40.0583 15.4231 39.9042 15.5681 39.7142 15.5681Z" fill="#A0A8FB"/>
<mask id="mask0_5_1002" style="mask-type:luminance" maskUnits="userSpaceOnUse" x="0" y="0" width="68" height="65">
<path d="M68 0.5H0V64.5H68V0.5Z" fill="white"/>
</mask>
<g mask="url(#mask0_5_1002)">
<path d="M3.54093 12.4342C3.8589 11.3888 4.1562 10.37 4.41677 9.32056C3.89208 9.46558 3.35665 9.5731 2.8272 9.70149C2.29463 9.81784 1.76939 9.96491 1.23083 10.0554C1.98074 10.8816 2.74411 11.6457 3.54093 12.4342Z" fill="white"/>
<path d="M4.96061 9.08691L4.13318 9.31552L3.29624 9.50995L1.62235 9.89959L-0.067585 10.2201L-0.912553 10.3809L-1.76405 10.506L-3.46677 10.7574L-5.17915 10.9374L-6.03526 11.0279L-6.89465 11.0818L-8.61328 11.1903L-8.60961 11.2702L-6.88839 11.1615L-6.02778 11.1077L-5.1703 11.017L-3.45534 10.8368L-1.75018 10.585L-0.897593 10.4596L-0.0514002 10.2987L1.64098 9.97767L3.31718 9.58752L4.15535 9.39283L4.98386 9.16384L4.96061 9.08691Z" fill="#222A40"/>
<path d="M7.92458 11.2677C8.16108 10.2014 8.37188 9.14276 8.55739 8.09277L7.00413 8.59018C6.48937 8.76477 5.9572 8.88765 5.43469 9.03921C6.23818 9.78788 7.0773 10.5577 7.92458 11.2677Z" fill="#7F85FA"/>
<path d="M17.1054 7.70521C17.1753 6.63974 17.1974 5.54201 17.2054 4.47437C16.2543 4.98406 15.2615 5.41785 14.2812 5.87443C15.1984 6.49574 16.14 7.1063 17.1054 7.70521Z" fill="white"/>
<path d="M12.5913 9.66064C12.7393 8.58135 12.8589 7.50371 12.9558 6.44067L11.4521 7.05879L9.92249 7.61789C10.787 8.30794 11.6767 8.98928 12.5913 9.66064Z" fill="#A0A8FB"/>
<path d="M17.6834 4.13843L16.1689 4.91475L14.6201 5.62899L13.8459 5.98649L13.0558 6.31212L11.4763 6.96416L9.86854 7.5518L9.06464 7.84608L8.24823 8.1072L6.61556 8.63033L4.96057 9.08678L4.98383 9.16371L6.64112 8.70662L8.27612 8.18272L9.09388 7.92121L9.89873 7.62656L11.5088 7.03814L13.0905 6.38521L13.8816 6.05907L14.657 5.70105L16.2079 4.98579L17.7246 4.20844L17.6834 4.13843Z" fill="#222A40"/>
<path d="M21.0903 5.62786C21.0661 4.5405 21.0317 3.4859 20.9502 2.40942C20.4956 2.69512 20.0167 2.94523 19.5513 3.21518C19.0789 3.47413 18.6229 3.75995 18.1372 3.99726C19.1125 4.5771 20.0816 5.09576 21.0903 5.62786Z" fill="#7F85FA"/>
<path d="M25.2483 3.06474C25.1338 1.98366 24.9967 0.917672 24.8377 -0.132568L23.5111 0.774312L22.8475 1.22756L22.1636 1.65329C22.6698 1.90046 23.1817 2.14391 23.6993 2.38391C24.2106 2.61559 24.7264 2.84151 25.2483 3.06474Z" fill="#A0A8FB"/>
<path d="M28.8752 -3.39038L27.5764 -2.32542L26.9274 -1.79256L26.2531 -1.28772L24.9052 -0.277421L23.5107 0.675795L22.8137 1.15272L22.0948 1.60034L20.6574 2.49608L19.1795 3.33231L18.4409 3.75074L17.6833 4.13845L17.7246 4.20847L18.483 3.82012L19.2229 3.40117L20.7027 2.5638L22.1421 1.66664L22.8621 1.21852L23.5602 0.740819L24.9568 -0.213677L26.3066 -1.22552L26.9818 -1.73099L27.6318 -2.26462L28.9325 -3.33124L28.8752 -3.39038Z" fill="#222A40"/>
</g>
<mask id="mask1_5_1002" style="mask-type:luminance" maskUnits="userSpaceOnUse" x="0" y="0" width="68" height="65">
<path d="M68 0.5H0V64.5H68V0.5Z" fill="white"/>
</mask>
<g mask="url(#mask1_5_1002)">
<path d="M34.023 2.77659C35.0048 2.24347 35.9897 1.65019 36.9375 1.06587C35.9602 0.603664 35.0282 0.0661923 34.0839 -0.450928C34.0393 0.611216 34.0188 1.68744 34.023 2.77659Z" fill="#7F85FA"/>
<path d="M43.0345 6.71514C43.9216 6.01856 44.7758 5.33312 45.618 4.60288C45.0973 4.44532 44.5903 4.25114 44.0757 4.07719C43.5657 3.89171 43.0435 3.73568 42.5439 3.52563C42.671 4.6057 42.8461 5.64147 43.0345 6.71514Z" fill="white"/>
<path d="M38.4468 4.91474C38.9164 4.60472 39.3799 4.29202 39.837 3.97675C40.2953 3.6588 40.7539 3.32459 41.2026 2.99525C40.9514 2.89387 40.6965 2.80005 40.4483 2.69266L39.7071 2.3628L38.2243 1.70386C38.2735 2.76267 38.3475 3.83327 38.4468 4.91474Z" fill="#A0A8FB"/>
<path d="M46.2074 4.6973L45.3865 4.44885L44.5779 4.16687L42.9608 3.60393L41.3715 2.97519L40.5767 2.6612L39.7977 2.31445L38.2391 1.62184L36.7151 0.864981L35.9529 0.486997L35.21 0.0768846L33.7235 -0.742188L33.6789 -0.674092L35.1675 0.146261L35.9116 0.556885L36.675 0.935509L38.201 1.6934L39.7618 2.38716L40.542 2.73429L41.338 3.04866L42.9295 3.67829L44.5491 4.24213L45.3587 4.52437L46.1807 4.7732L46.2074 4.6973Z" fill="#222A40"/>
<path d="M47.3568 8.06888C48.1891 7.31202 48.9956 6.54786 49.7759 5.77743L48.194 5.36732C47.6639 5.23944 47.1503 5.05973 46.6277 4.90869C46.8456 5.95279 47.0799 7.03349 47.3568 8.06888Z" fill="#7F85FA"/>
<path d="M57.0779 9.97797C57.7721 9.13368 58.4457 8.2373 59.0898 7.35845C57.9988 7.27704 56.9185 7.11077 55.835 6.96997C56.2226 7.96888 56.6369 8.97189 57.0779 9.97797Z" fill="white"/>
<path d="M52.1765 9.20776C52.9432 8.39329 53.6857 7.56501 54.4006 6.7371L52.7878 6.45307L51.1888 6.10645C51.4919 7.13467 51.821 8.16865 52.1765 9.20776Z" fill="#A0A8FB"/>
<path d="M59.6857 7.33343L57.9694 7.17445L56.2618 6.9461L55.408 6.83231L54.5602 6.68383L52.8643 6.38776L51.1834 6.02335L50.3429 5.84159L49.5116 5.62578L47.8487 5.19506L46.2073 4.69727L46.1807 4.77317L47.8244 5.27173L49.4895 5.70309L50.3221 5.91928L51.1638 6.10117L52.847 6.4661L54.5452 6.76255L55.3943 6.91128L56.2493 7.0252L57.9594 7.25394L59.678 7.41304L59.6857 7.33343Z" fill="#222A40"/>
<path d="M61.6145 10.3671C62.2437 9.45489 62.8449 8.56439 63.4203 7.63089C62.8736 7.62679 62.3282 7.58033 61.7821 7.55742C61.2367 7.52171 60.6888 7.51697 60.1454 7.4563C60.6059 8.45188 61.0979 9.39345 61.6145 10.3671Z" fill="#7F85FA"/>
<path d="M66.5844 10.4463C67.1352 9.49154 67.6583 8.5373 68.1538 7.58447L66.5149 7.63298L65.6954 7.65692L64.8754 7.64732C65.1466 8.11951 65.4246 8.5917 65.7095 9.0639C65.9942 9.5261 66.2859 9.98563 66.5844 10.4463Z" fill="#A0A8FB"/>
<path d="M73.4385 7.02515L71.7285 7.21919L70.8734 7.3166L70.0143 7.37753L68.2961 7.50028L66.5734 7.55123L65.7121 7.57708L64.8501 7.5671L63.1263 7.54777L61.4047 7.45779L60.5438 7.41324L59.6858 7.33337L59.678 7.41299L60.5373 7.49299L61.3994 7.53766L63.1235 7.62777L64.8497 7.6471L65.7129 7.65708L66.5756 7.63123L68.3007 7.58028L70.0212 7.45727L70.8816 7.39635L71.738 7.29868L73.4506 7.10438L73.4385 7.02515Z" fill="#222A40"/>
</g>
<path d="M44.0445 32.3883L44.0296 32.369C43.8899 32.5004 43.6327 32.4479 43.5079 32.3023C43.3811 32.1585 43.3625 31.9568 43.3774 31.7709C43.437 31.0625 43.9456 30.4418 44.568 30.0385C45.1903 29.6351 45.9225 29.4142 46.6435 29.2002C46.243 29.6561 46.2839 30.312 46.1758 30.8941C46.0621 31.5043 45.7622 32.083 45.3206 32.5425C45.1827 32.6846 45.0262 32.8197 44.8381 32.8967C44.6481 32.9739 44.4207 32.9844 44.2437 32.8862C44.0649 32.788 43.9625 32.5653 44.0445 32.3883Z" fill="#A0A8FB"/>
<path d="M42.8427 30.0613C42.6527 30.2577 42.3936 30.3998 42.1124 30.4261C41.831 30.4524 41.5348 30.356 41.354 30.1526C41.1547 29.9282 41.1193 29.6126 41.1435 29.3214C41.2348 28.2236 42.049 27.2627 42.1328 26.1685C42.729 26.442 43.2767 26.8155 43.696 27.2995C44.1282 27.801 44.4151 28.4252 44.4487 29.0706C44.4637 29.3546 44.4264 29.6493 44.2885 29.9035C44.1506 30.156 43.8972 30.3647 43.5991 30.4138C43.3012 30.4612 42.9639 30.3227 42.8427 30.0613Z" fill="#A0A8FB"/>
<path d="M41.8181 31.5904C41.8926 31.7676 41.9522 31.9552 41.9448 32.1445C41.9393 32.3356 41.8572 32.5303 41.6951 32.6443C41.533 32.7565 41.2833 32.7652 41.1362 32.6356C41.1976 32.9863 40.976 33.3632 40.6275 33.5001C40.2791 33.6351 39.8375 33.5176 39.6177 33.2283C39.4333 32.9846 39.4091 32.6672 39.3922 32.3673C39.3569 31.8202 39.3196 31.2713 39.191 30.7364C39.0773 30.2524 38.8854 29.779 38.5743 29.3774C39.2618 29.4143 39.9381 29.637 40.5027 30.0122C41.0914 30.4034 41.5553 30.9593 41.8181 31.5904Z" fill="#A0A8FB"/>
<path d="M42.457 38.2737C42.457 38.2737 42.4566 38.2737 42.4563 38.2737C42.422 38.2735 42.3933 38.2493 42.3894 38.2171C42.2198 36.8418 42.0444 35.4196 41.6384 34.0652C41.184 32.5493 40.4887 31.3137 39.5715 30.3929C39.5459 30.3671 39.5473 30.3266 39.5746 30.3024C39.6019 30.2786 39.645 30.2793 39.6708 30.3053C40.603 31.2414 41.309 32.4948 41.7694 34.0305C42.129 35.2301 42.3085 36.4785 42.4624 37.7009C42.6331 36.5521 42.8435 35.3543 43.2068 34.1915C43.6618 32.7351 44.3135 31.5088 45.1438 30.5464C45.1676 30.5191 45.2102 30.5146 45.2394 30.5371C45.2685 30.5594 45.273 30.5996 45.2492 30.6271C44.4303 31.5762 43.7871 32.7878 43.337 34.2276C42.9235 35.5518 42.7089 36.9251 42.5243 38.2184C42.5198 38.2499 42.491 38.2737 42.457 38.2737Z" fill="#222A40"/>
<path d="M42.4357 38.3193C42.4343 38.3193 42.4329 38.3193 42.4317 38.3192C42.3943 38.3171 42.3656 38.2868 42.3678 38.2516L42.5964 34.5877C42.7506 32.1149 42.9102 29.5578 42.4256 27.0786C42.4188 27.0439 42.4433 27.0105 42.4801 27.0041C42.5173 26.9973 42.5525 27.0206 42.5594 27.0554C43.0467 29.55 42.8868 32.1149 42.7321 34.5953L42.5035 38.2591C42.5013 38.2931 42.4714 38.3193 42.4357 38.3193Z" fill="#222A40"/>
<path d="M43.8144 38.5658C43.8105 38.5668 43.807 38.5679 43.803 38.5687C42.2908 38.9673 41.071 38.5824 41.0207 38.5663C41.0194 38.566 41.019 38.5658 41.019 38.5658C41.019 38.5658 40.5008 36.3008 40.5148 36.0219C40.5288 35.7434 41.019 35.3682 41.019 35.3682L40.7585 34.9644H44.0747L43.8143 35.3682C43.8143 35.3682 44.305 35.7432 44.319 36.0219C44.3331 36.3007 43.8144 38.5658 43.8144 38.5658Z" fill="#A0A8FB"/>
<path d="M39.6448 49.6509H48.6348C48.1405 48.4095 48.3628 46.8137 48.3628 46.8137H49.8788C51.1373 46.8137 52.0905 45.8857 51.889 44.8599C51.7872 44.3462 51.7187 43.7126 51.7187 42.9421C51.7187 41.2897 52.2151 39.9421 52.6449 39.0843C52.9585 38.4593 53.704 38.0552 54.5242 38.0552H45.5342C44.7139 38.0552 43.9685 38.4593 43.6549 39.0843C43.225 39.9421 42.7287 41.2897 42.7287 42.9421C42.7287 43.7126 42.7972 44.3462 42.899 44.8599C43.1004 45.8856 42.1472 46.8137 40.8887 46.8137H39.3728C39.3728 46.8137 39.1505 48.4095 39.6448 49.6509Z" fill="#A0A8FB"/>
<path d="M48.6347 49.6511H52.9168C52.9168 49.6511 53.6478 47.6699 52.8006 46.4645L52.8026 46.4594C52.8857 46.2642 55.5998 39.9578 55.5418 39.0623C55.4857 38.1513 54.7817 38.0554 54.7817 38.0554H54.5242C53.7039 38.0554 52.9583 38.4595 52.6448 39.0845C52.2149 39.9424 51.7187 41.29 51.7187 42.9423C51.7187 43.7129 51.7872 44.3465 51.889 44.8602C52.0904 45.8858 51.1371 46.814 49.8787 46.814H48.3627C48.3627 46.8137 48.1405 48.4096 48.6347 49.6511Z" fill="white"/>
<path d="M48.3626 46.8775H39.7441C39.7066 46.8775 39.6761 46.8488 39.6761 46.8135C39.6761 46.7782 39.7066 46.7495 39.7441 46.7495H48.3626C48.4001 46.7495 48.4306 46.7782 48.4306 46.8135C48.4306 46.8488 48.4003 46.8775 48.3626 46.8775Z" fill="#C1C9FC"/>
<path d="M52.4543 49.6501L54.2727 60.3402H53.6377L51.0975 49.6501H52.4543Z" fill="white"/>
<path d="M39.9751 49.6501L38.1566 60.3402H38.7916L41.3318 49.6501H39.9751Z" fill="white"/>
<path d="M48.7876 49.6501L46.969 60.3402H47.6041L50.1442 49.6501H48.7876Z" fill="white"/>
<path d="M43.3906 49.6501L45.2092 60.3402H44.5741L42.034 49.6501H43.3906Z" fill="white"/>
<path d="M18.1283 49.6509H9.13825C9.63247 48.4095 9.41024 46.8137 9.41024 46.8137H7.89439C6.63598 46.8137 5.68276 45.8857 5.88417 44.8599C5.9859 44.3462 6.05445 43.7126 6.05445 42.9421C6.05445 41.2897 5.55805 39.9421 5.12829 39.0843C4.81467 38.4593 4.06925 38.0552 3.2489 38.0552H12.2389C13.0593 38.0552 13.8048 38.4593 14.1183 39.0843C14.5482 39.9421 15.0445 41.2897 15.0445 42.9421C15.0445 43.7126 14.9759 44.3462 14.8742 44.8599C14.6728 45.8856 15.626 46.8137 16.8844 46.8137H18.4004C18.4004 46.8137 18.6226 48.4095 18.1283 49.6509Z" fill="#A0A8FB"/>
<path d="M9.1383 49.6511H4.8562C4.8562 49.6511 4.1252 47.6699 4.97248 46.4645L4.97044 46.4594C4.88735 46.2642 2.17319 39.9578 2.23127 39.0623C2.2873 38.1513 2.99137 38.0554 2.99137 38.0554H3.24882C4.06917 38.0554 4.81459 38.4595 5.1282 39.0845C5.5581 39.9424 6.05436 41.29 6.05436 42.9423C6.05436 43.7129 5.98582 44.3465 5.88409 44.8602C5.68267 45.8858 6.6359 46.814 7.89431 46.814H9.4103C9.41043 46.8137 9.63266 48.4096 9.1383 49.6511Z" fill="white"/>
<path d="M18.0289 46.8775H9.41041C9.37287 46.8775 9.34241 46.8488 9.34241 46.8135C9.34241 46.7782 9.37287 46.7495 9.41041 46.7495H18.029C18.0665 46.7495 18.097 46.7782 18.097 46.8135C18.097 46.8488 18.0665 46.8775 18.0289 46.8775Z" fill="#C1C9FC"/>
<path d="M5.31884 49.6501L3.50024 60.3402H4.13536L6.67544 49.6501H5.31884Z" fill="white"/>
<path d="M17.798 49.6501L19.6166 60.3402H18.9815L16.4414 49.6501H17.798Z" fill="white"/>
<path d="M8.98552 49.6501L10.804 60.3402H10.169L7.62878 49.6501H8.98552Z" fill="white"/>
<path d="M14.3824 49.6501L12.564 60.3402H13.1989L15.7392 49.6501H14.3824Z" fill="white"/>
<path d="M60.9422 37.9731H25.0075V39.0527H60.9422V37.9731Z" fill="#A0A8FB"/>
<path d="M25.3781 39.0529L20.7952 60.34H21.2973L26.9418 39.0447L25.3781 39.0529Z" fill="white"/>
<path d="M60.6728 39.0529L65.2557 60.34H64.7536L59.1091 39.0447L60.6728 39.0529Z" fill="white"/>
<path d="M60.9422 39.0527H25.0075V39.5046H60.9422V39.0527Z" fill="white"/>
<path d="M33.219 12.4993C35.121 12.4993 36.6629 11.0481 36.6629 9.25795C36.6629 7.4678 35.121 6.0166 33.219 6.0166C31.3169 6.0166 29.775 7.4678 29.775 9.25795C29.775 11.0481 31.3169 12.4993 33.219 12.4993Z" fill="#C1C9FC"/>
<path d="M33.2189 12.687C31.2101 12.687 29.5755 11.1487 29.5755 9.25785C29.5755 7.36703 31.2099 5.82886 33.2189 5.82886C35.2279 5.82886 36.8622 7.36716 36.8622 9.25785C36.8622 11.1485 35.2279 12.687 33.2189 12.687ZM33.2189 6.20428C31.43 6.20428 29.9745 7.57401 29.9745 9.25785C29.9745 10.9417 31.43 12.3113 33.2189 12.3113C35.0079 12.3113 36.4634 10.9416 36.4634 9.25785C36.4634 7.57414 35.0079 6.20428 33.2189 6.20428Z" fill="#A0A8FB"/>
<path d="M33.219 11.9317C33.1639 11.9317 33.1191 11.8897 33.1191 11.8377V11.0712C33.1191 11.0194 33.1637 10.9773 33.219 10.9773C33.2742 10.9773 33.3188 11.0193 33.3188 11.0712V11.8377C33.3188 11.8897 33.2742 11.9317 33.219 11.9317Z" fill="#A0A8FB"/>
<path d="M33.219 7.53798C33.1639 7.53798 33.1191 7.496 33.1191 7.44403V6.67769C33.1191 6.62572 33.1637 6.58374 33.219 6.58374C33.2742 6.58374 33.3188 6.62572 33.3188 6.67769V7.44403C33.3188 7.496 33.2742 7.53798 33.219 7.53798Z" fill="#A0A8FB"/>
<path d="M31.2919 9.35184H30.4776C30.4225 9.35184 30.3777 9.30985 30.3777 9.25789C30.3777 9.20605 30.4224 9.16406 30.4776 9.16406H31.2919C31.3472 9.16406 31.3918 9.20605 31.3918 9.25789C31.3918 9.30973 31.3472 9.35184 31.2919 9.35184Z" fill="#A0A8FB"/>
<path d="M35.9601 9.35184H35.1458C35.0907 9.35184 35.0461 9.30985 35.0461 9.25789C35.0461 9.20605 35.0907 9.16406 35.1458 9.16406H35.9601C36.0152 9.16406 36.0598 9.20605 36.0598 9.25789C36.06 9.30973 36.0154 9.35184 35.9601 9.35184Z" fill="#A0A8FB"/>
<path d="M31.2805 11.1762C31.255 11.1762 31.2295 11.1669 31.21 11.1486C31.1711 11.1119 31.1711 11.0525 31.21 11.0159L31.7858 10.4741C31.8247 10.4373 31.8879 10.4373 31.9268 10.4741C31.9657 10.5107 31.9657 10.5702 31.9268 10.6068L31.351 11.1486C31.3317 11.1669 31.3061 11.1762 31.2805 11.1762Z" fill="#A0A8FB"/>
<path d="M34.5815 8.06936C34.556 8.06936 34.5305 8.06014 34.511 8.04184C34.4719 8.00523 34.4719 7.94571 34.511 7.9091L35.0866 7.36715C35.1255 7.33042 35.1888 7.33042 35.2277 7.36715C35.2666 7.40376 35.2666 7.46328 35.2277 7.49989L34.652 8.04184C34.6325 8.06014 34.6071 8.06936 34.5815 8.06936Z" fill="#A0A8FB"/>
<path d="M31.8564 8.06936C31.8308 8.06936 31.8054 8.06014 31.7858 8.04184L31.21 7.49989C31.1711 7.46328 31.1711 7.40376 31.21 7.36715C31.2489 7.33042 31.3121 7.33042 31.351 7.36715L31.9268 7.9091C31.9657 7.94571 31.9657 8.00523 31.9268 8.04184C31.9075 8.06014 31.8819 8.06936 31.8564 8.06936Z" fill="#A0A8FB"/>
<path d="M35.1572 11.1762C35.1317 11.1762 35.1062 11.1669 35.0866 11.1486L34.511 10.6068C34.4719 10.5702 34.4719 10.5107 34.511 10.4741C34.5499 10.4373 34.6131 10.4373 34.652 10.4741L35.2277 11.0159C35.2666 11.0526 35.2666 11.112 35.2277 11.1486C35.2084 11.1669 35.1828 11.1762 35.1572 11.1762Z" fill="#A0A8FB"/>
<path d="M33.2189 9.60904C33.1676 9.60904 33.1168 9.59432 33.0738 9.56578C33.0069 9.52136 32.967 9.44904 32.967 9.37199V7.15247C32.967 7.02152 33.0798 6.91528 33.219 6.91528C33.3582 6.91528 33.4711 7.02152 33.4711 7.15247V9.03535L34.6366 8.64328C34.7673 8.599 34.9118 8.66338 34.9585 8.78677C35.0054 8.91003 34.9371 9.04584 34.806 9.08975L33.3036 9.59522C33.2762 9.60456 33.2475 9.60904 33.2189 9.60904Z" fill="#7F85FA"/>
<path d="M1.60856 60.0864H65.8223C65.8223 60.0864 65.3749 63.7864 32.7259 63.7864C0.0769292 63.7864 1.60856 60.0864 1.60856 60.0864Z" fill="#A0A8FB"/>
<path d="M46.1988 16.8675C45.757 18.3385 44.5943 22.1765 44.3325 22.7494C44.0081 23.4616 43.1889 23.6545 43.1889 23.6545H43.187L42.2178 20.8144L44.6854 16.1428C44.6 15.8626 44.4104 15.2752 44.2378 15.0503C44.0065 14.7504 44.0445 14.5415 44.0824 14.4202C44.1203 14.297 44.4845 13.0617 44.4845 13.0617C44.4845 13.0617 44.9094 13.001 45.0271 13.4384C45.0271 13.4384 45.2073 13.2456 45.4937 13.5366C45.4937 13.5366 45.799 13.4063 45.9641 13.583C45.9641 13.583 46.3567 13.4956 46.5596 13.7634C46.5596 13.7634 46.8365 13.6742 47.1002 13.9312C47.3619 14.19 47.3051 14.622 47.1571 14.8166C47.0091 15.0093 46.2011 16.8677 46.2011 16.8677L46.1988 16.8675Z" fill="#E07049"/>
<path d="M41.8857 24.0615C41.6468 23.7402 41.2446 23.135 41.1954 22.6262C41.146 22.1282 41.2486 21.5034 41.3206 21.1552C41.3529 20.991 41.3794 20.8892 41.3794 20.8892C41.6563 20.5716 42.2177 20.8142 42.2177 20.8142L43.1868 23.6543L43.2513 23.8417C42.9952 24.1506 42.0659 24.2879 42.0659 24.2879C42.0659 24.2879 41.9919 24.2025 41.8857 24.0615Z" fill="#A0A8FB"/>
<path d="M41.1954 22.6261C41.1461 22.128 41.2485 21.5033 41.3206 21.1551L36.8635 20.434L35.6516 20.359L30.6235 19.8769L27.0274 17.3403L25.0036 19.3325L27.3612 23.7863L28.0667 29.1505C28.0667 29.1505 27.0919 32.935 27.1449 33.2455C27.1961 33.5543 27.6968 33.9899 28.2241 34.3862C28.7514 34.7825 31.7519 34.3862 31.7519 34.3862C31.7519 34.3862 34.0772 34.8699 34.7107 34.7575C35.3423 34.6468 37.7947 32.5243 37.7947 32.5243L37.9009 24.9574L41.8858 24.0612C41.6467 23.7401 41.2446 23.1349 41.1954 22.6261ZM32.592 22.0175L32.5996 22.037C32.5636 22.0512 32.5598 22.046 32.592 22.0175Z" fill="#7F85FA"/>
<path d="M32.5992 22.0372C32.5637 22.0514 32.56 22.0461 32.5917 22.0176L32.5992 22.0372Z" fill="#7F85FA"/>
<path d="M40.1142 59.7758C40.1142 59.7758 40.2641 60.0828 39.7633 60.2559C39.2626 60.4291 36.9866 60.3541 36.9866 60.3541L35.8088 58.6011L35.9738 56.7053L38.4698 56.5215L38.6899 57.6746L40.1142 59.7758Z" fill="#222A40"/>
<path d="M26.7087 56.743L26.3179 56.6912L27.1448 33.2457C27.1959 33.5546 27.6967 33.99 28.224 34.3863C28.7512 34.7826 31.7518 34.3863 31.7518 34.3863C31.7518 34.3863 34.0771 34.87 34.7106 34.7576C35.3422 34.6469 37.7946 32.5244 37.7946 32.5244L38.8662 56.4929L38.4698 56.5215L35.9738 56.7053L35.7387 56.7231L32.3113 38.0278L29.5516 57.1212L29.1761 57.0712L26.7087 56.743Z" fill="#222A40"/>
<path d="M35.5358 16.082L35.6515 16.0694C35.7369 16.0641 35.826 16.0766 35.9076 16.1052C36.0441 16.1552 36.158 16.2516 36.2358 16.3693C36.2623 16.4086 36.2851 16.4497 36.3021 16.4925C36.3704 16.6657 36.3704 16.8584 36.321 17.0352C36.2489 17.2958 36.0687 17.5261 35.8298 17.6725C35.6326 17.7921 35.3935 17.8511 35.1584 17.8421C35.1318 17.926 35.1015 18.0063 35.0674 18.0813C34.5857 19.1309 33.3982 19.3684 33.1707 19.4452C32.9261 19.5292 31.8506 19.4559 31.64 19.256C31.4276 19.0561 31.1621 18.026 31.1317 17.437C31.1164 17.1317 31.2209 16.4534 31.3252 15.875C31.42 15.3484 31.513 14.9039 31.513 14.9039H31.5149C32.761 14.9807 33.0645 14.4523 33.1005 14.3827C33.0872 14.4362 33.0019 14.8039 33.3206 14.9717C33.6639 15.1503 35.0655 14.3755 35.0655 14.3755C34.8851 15.4125 35.4713 16.0195 35.5358 16.082Z" fill="#E07049"/>
<path d="M33.9444 21.8444C33.5992 21.6766 33.1895 21.6748 33.1895 21.6748L34.7713 20.2521L34.8225 19.8772C35.3954 19.8968 35.6513 20.3591 35.6513 20.3591L34.4033 22.4351C34.3712 22.1354 34.1719 21.9534 33.9444 21.8444Z" fill="#A0A8FB"/>
<path d="M36.2356 16.3694C36.1578 16.2516 36.044 16.1551 35.9074 16.1052C35.8258 16.0766 35.7368 16.0641 35.6514 16.0694L35.5356 16.082C35.4712 16.0195 34.885 15.4126 35.0652 14.3755C35.0652 14.3755 33.6636 15.1503 33.3203 14.9717C33.0017 14.8039 33.0871 14.4362 33.1003 14.3827C33.0642 14.4523 32.7608 14.9807 31.5146 14.9039H31.5127C31.5127 14.9039 31.4199 15.3483 31.3249 15.875C31.3249 15.875 30.5644 14.4058 31.2168 13.6687C31.8693 12.9296 33.8455 12.694 34.4468 12.7386C35.0462 12.7815 35.5412 13.6437 35.5412 13.6437C35.5412 13.6437 35.5469 13.6455 35.5582 13.6473C35.6663 13.6669 36.2523 13.7884 36.3547 14.115C36.4689 14.4755 36.6016 15.8695 36.2356 16.3694Z" fill="#222A40"/>
<path d="M35.0672 18.0813L35.0653 18.0885C35.0312 18.2509 34.3294 21.4302 31.4142 19.9699L31.5698 19.4791L31.64 19.256C31.8505 19.4559 32.9259 19.5291 33.1707 19.4451C33.3981 19.3683 34.5855 19.1309 35.0672 18.0813Z" fill="#222A40"/>
<path d="M35.0653 18.0884L34.8225 19.8771L34.7713 20.252L33.1895 21.6747L31.4142 19.97C34.3294 21.4301 35.0312 18.2508 35.0653 18.0884Z" fill="#E07049"/>
<path d="M33.9444 21.8444L33.7756 22.6477H32.8121L32.592 22.0176C32.7589 21.8712 32.9618 21.7391 33.1895 21.6748C33.1895 21.6748 33.5993 21.6766 33.9444 21.8444Z" fill="#222A40"/>
<path d="M33.7756 22.6477C34.4034 24.9077 33.6162 29.1491 33.6162 29.1491C33.2274 29.7453 31.7082 30.3166 31.7082 30.3166L30.6042 28.6528C31.712 27.3568 32.8119 22.6477 32.8119 22.6477H33.7756Z" fill="#222A40"/>
<path d="M32.592 22.0176C32.2677 22.2961 32.0743 22.6263 32.0743 22.6263L30.6233 19.8773C30.9894 19.4293 31.5697 19.4792 31.5697 19.4792L31.4141 19.9701L33.1893 21.6748C32.9619 21.739 32.759 21.8711 32.592 22.0176Z" fill="#A0A8FB"/>
<path d="M29.1761 57.0715L29.3411 58.9743L28.1632 60.7273C28.1632 60.7273 25.8872 60.8023 25.3865 60.6273C24.8857 60.4542 25.0356 60.149 25.0356 60.149L26.4582 58.0479L26.7085 56.7429L29.1761 57.0715Z" fill="#222A40"/>
<path d="M28.6736 8.30795C28.6736 8.30795 28.095 9.47006 28.0401 9.58603C27.9852 9.70212 27.8694 9.88414 27.4863 9.97156C27.1051 10.0572 26.4849 10.4678 26.4849 10.4678L25.897 15.5786L24.3152 18.383C24.3152 18.383 22.9003 16.3355 22.9174 16.0873C22.9345 15.8392 24.7799 9.88043 24.7799 9.88043C24.7799 9.88043 25.4077 8.24523 25.4305 8.00612C25.4532 7.76868 25.7074 7.40452 26.0848 7.3706C26.4622 7.33489 26.6121 7.57233 26.6121 7.57233C26.9516 7.49374 27.1887 7.80081 27.1887 7.80081C27.4372 7.76689 27.5795 8.05246 27.5795 8.05246C27.9967 8.006 28.0005 8.26315 28.0005 8.26315C28.391 8.00267 28.6736 8.30795 28.6736 8.30795Z" fill="#E07049"/>
<path d="M27.0272 17.3404L25.0035 19.3326L24.903 19.4326C24.903 19.4326 24.0855 18.9489 24.3151 18.383L25.8969 15.5786C25.8969 15.5786 26.4318 15.7981 26.555 16.0874C26.555 16.0874 27.2625 16.7818 27.1696 17.1995L27.0272 17.3404Z" fill="#A0A8FB"/>
<path d="M32.5705 15.9128C32.5705 15.9128 32.6691 16.3113 32.5839 16.7631C32.4985 17.2149 32.1687 17.4527 32.0154 17.4016C31.8621 17.3505 31.6075 17.1013 31.6744 16.8714C31.6744 16.8714 31.7646 16.7236 31.9088 16.6182C32.0528 16.5129 32.5705 15.9128 32.5705 15.9128Z" fill="#BD4A28"/>
<path d="M32.1898 17.5738C32.1787 17.5738 32.1675 17.5713 32.1571 17.566C31.945 17.4567 31.7656 17.2945 31.6383 17.0971C31.559 16.9741 31.5877 16.8111 31.7064 16.7093C32.0448 16.4193 32.3513 16.0948 32.6175 15.7448C32.6394 15.7159 32.6821 15.7095 32.7123 15.73C32.7429 15.7506 32.7498 15.7905 32.7279 15.8193C32.4562 16.1764 32.1434 16.5077 31.7979 16.8039C31.7271 16.8646 31.7089 16.9601 31.7544 17.0307C31.8693 17.2089 32.0311 17.3551 32.2223 17.4536C32.2552 17.4705 32.2673 17.5096 32.2492 17.5405C32.2371 17.5618 32.2137 17.5738 32.1898 17.5738Z" fill="#222A40"/>
<path d="M33.2625 16.1419C33.247 16.3133 33.3627 16.4625 33.5212 16.4752C33.6796 16.4879 33.8206 16.3593 33.8361 16.188C33.8517 16.0166 33.7359 15.8673 33.5775 15.8546C33.419 15.8418 33.278 15.9705 33.2625 16.1419Z" fill="#222A40"/>
<path d="M31.4579 15.9968C31.4424 16.1682 31.5582 16.3175 31.7166 16.3301C31.875 16.3429 32.0161 16.2143 32.0316 16.0429C32.0471 15.8715 31.9314 15.7223 31.7729 15.7096C31.6145 15.6969 31.4734 15.8254 31.4579 15.9968Z" fill="#222A40"/>
<path d="M33.5088 15.19C33.7552 15.2296 33.9844 15.3076 34.2008 15.4253C34.2398 15.4464 34.27 15.4984 34.278 15.5386C34.2866 15.5821 34.2759 15.6384 34.2465 15.6741C34.217 15.71 34.1752 15.7403 34.1261 15.7468C34.0729 15.7537 34.0285 15.7423 33.9821 15.7171C33.9704 15.7108 33.9586 15.7048 33.9469 15.6988C33.8144 15.6351 33.6743 15.5871 33.5293 15.5555C33.5117 15.5521 33.4941 15.5487 33.4764 15.5459C33.4259 15.5378 33.3815 15.521 33.3475 15.483C33.3176 15.4495 33.2975 15.3969 33.3036 15.3528C33.3161 15.2634 33.4041 15.1732 33.5088 15.19Z" fill="#222A40"/>
<path d="M31.3241 15.439C31.3467 15.4791 31.3823 15.5157 31.4296 15.5299C31.4808 15.5452 31.5267 15.541 31.5769 15.5236C31.5896 15.5193 31.6024 15.5153 31.615 15.5112C31.7571 15.4695 31.9037 15.4446 32.0522 15.4366C32.0702 15.4362 32.0881 15.4355 32.1061 15.4355C32.1574 15.4357 32.2042 15.4262 32.2444 15.3942C32.28 15.366 32.3093 15.3174 32.3112 15.2729C32.3151 15.1829 32.2445 15.08 32.1383 15.0798C31.8884 15.0795 31.6485 15.1199 31.414 15.2012" fill="#222A40"/>
<path d="M31.7888 18.0696C31.8762 18.2594 32.1094 18.606 32.6365 18.5659C33.1175 18.5311 33.272 18.1279 33.318 17.9166C33.3334 17.8516 33.2758 17.7932 33.2067 17.8001L31.8731 17.9384C31.8039 17.9453 31.7617 18.0118 31.7888 18.0696Z" fill="white"/>
<path d="M35.3274 17.5453C35.3235 17.5453 35.3194 17.5451 35.3153 17.5443C35.2784 17.5382 35.2537 17.5049 35.2604 17.4701C35.3335 17.083 35.5865 16.7241 35.9374 16.5103C35.9685 16.4911 36.0109 16.4994 36.0313 16.5291C36.0517 16.5588 36.0428 16.5985 36.0112 16.6176C35.6916 16.8125 35.461 17.1396 35.3943 17.4923C35.3883 17.5234 35.3596 17.5453 35.3274 17.5453Z" fill="#222A40"/>
<path d="M35.5991 13.5668C35.5635 13.5668 35.5336 13.5408 35.5312 13.5068C35.5128 13.2352 35.4487 12.9694 35.3404 12.7166C35.3264 12.6838 35.3433 12.6464 35.3781 12.6332C35.4125 12.6202 35.4526 12.6359 35.4665 12.6687C35.5801 12.9343 35.6475 13.2135 35.667 13.4987C35.6694 13.5339 35.641 13.5643 35.6035 13.5666C35.602 13.5668 35.6003 13.5668 35.5991 13.5668Z" fill="#222A40"/>
<path d="M35.7747 13.4677C35.7709 13.4677 35.7671 13.4675 35.7633 13.4668C35.7263 13.4609 35.7012 13.4279 35.7075 13.3931C35.7475 13.169 35.7535 12.9413 35.7253 12.7161C35.7208 12.681 35.7475 12.6492 35.7849 12.6451C35.8212 12.6405 35.8559 12.6661 35.8604 12.7011C35.8901 12.9383 35.8839 13.1783 35.8417 13.4143C35.836 13.4456 35.8072 13.4677 35.7747 13.4677Z" fill="#222A40"/>
<path d="M26.0797 8.82169C25.9725 8.82169 25.8652 8.78022 25.7954 8.71929C25.7195 8.65298 25.6968 8.57209 25.7348 8.50271C25.8013 8.38098 25.9178 8.02847 25.9191 8.02502C25.9301 7.99122 25.9679 7.97228 26.0042 7.9829C26.0401 7.9934 26.0601 8.02924 26.0489 8.06303C26.044 8.07788 25.9276 8.42962 25.8558 8.56121C25.843 8.5845 25.8803 8.61881 25.8879 8.62534C25.9497 8.67935 26.0876 8.72415 26.1856 8.66758C26.3005 8.60127 26.3734 8.40697 26.444 8.21919C26.4768 8.1319 26.5107 8.04153 26.55 7.95974C26.6564 7.73791 26.5623 7.6167 26.5583 7.6117C26.536 7.5838 26.5411 7.54374 26.5704 7.52223C26.5997 7.5006 26.6416 7.50508 26.6649 7.53234C26.6711 7.53977 26.8164 7.71551 26.6737 8.01247C26.6369 8.08927 26.6039 8.17695 26.5721 8.26182C26.4901 8.48031 26.4126 8.68678 26.2566 8.77676C26.2025 8.80812 26.1411 8.82169 26.0797 8.82169Z" fill="#222A40"/>
<path d="M26.2267 10.3701C26.2142 10.3701 26.2015 10.3669 26.1903 10.3601L25.4663 9.92578C25.4346 9.90684 25.4254 9.86728 25.4455 9.83746C25.4658 9.80764 25.5079 9.79893 25.5395 9.81788L26.2634 10.2522C26.2951 10.2711 26.3044 10.3107 26.2842 10.3405C26.271 10.3596 26.2491 10.3701 26.2267 10.3701Z" fill="#222A40"/>
<path d="M26.3513 9.07105C26.3442 9.07105 26.3371 9.0708 26.3301 9.07003C26.1886 9.05749 26.0979 8.9108 26.0347 8.78459C26.0186 8.75259 26.0332 8.71457 26.0672 8.69947C26.1012 8.68411 26.1417 8.69806 26.1576 8.73006C26.2257 8.86625 26.2882 8.93781 26.3428 8.94267C26.4529 8.95304 26.6449 8.71739 26.8319 8.47573C27.1952 8.00597 27.1273 7.8292 27.1266 7.82753C27.1093 7.79605 27.1231 7.75893 27.1564 7.74267C27.1897 7.72654 27.2316 7.74011 27.2487 7.77147C27.2693 7.80885 27.351 8.02171 26.9418 8.55112C26.6671 8.90645 26.5119 9.07105 26.3513 9.07105Z" fill="#222A40"/>
<path d="M26.736 9.25302C26.7153 9.25302 26.6952 9.25021 26.6755 9.24445C26.4878 9.18915 26.4089 8.9969 26.4057 8.98883C26.3925 8.95581 26.4102 8.91907 26.4451 8.90653C26.4803 8.89373 26.5194 8.9105 26.5328 8.94352C26.5334 8.94493 26.5924 9.08586 26.716 9.12234C26.8473 9.16061 27.161 8.80989 27.329 8.62122C27.5894 8.32874 27.5172 8.08131 27.5139 8.07094C27.5035 8.03715 27.524 8.00157 27.5598 7.99158C27.5954 7.98122 27.6332 8.00042 27.6442 8.03408C27.6484 8.04714 27.7434 8.35523 27.4333 8.70352C27.1576 9.0129 26.9272 9.2529 26.736 9.25302Z" fill="#222A40"/>
<path d="M27.0813 9.43122C27.0577 9.43122 27.0352 9.42892 27.0134 9.42406C26.9431 9.40844 26.8484 9.35865 26.7959 9.20914C26.7841 9.17561 26.8036 9.13938 26.8392 9.12838C26.8748 9.11711 26.9132 9.13542 26.925 9.16908C26.9517 9.24498 26.9907 9.28761 27.0446 9.29951C27.1637 9.32626 27.3677 9.21298 27.6031 8.9895C27.9533 8.65695 27.9326 8.27103 27.9324 8.26719C27.93 8.23199 27.9586 8.20153 27.9961 8.19948C28.0341 8.19871 28.0659 8.22418 28.0681 8.25951C28.0693 8.27756 28.0923 8.707 27.6997 9.07974C27.4534 9.31334 27.2458 9.43122 27.0813 9.43122Z" fill="#222A40"/>
<path d="M26.3397 9.43046C26.3277 9.43046 26.3156 9.42739 26.3048 9.42125C26.2732 9.40294 26.2625 9.36493 26.2812 9.33485C26.2905 9.31987 26.3804 9.18739 26.6802 9.12109C26.716 9.11302 26.7534 9.1344 26.762 9.1687C26.7706 9.20313 26.7478 9.23757 26.7113 9.24563C26.469 9.29926 26.3986 9.39949 26.3979 9.40051C26.3849 9.41984 26.3626 9.43046 26.3397 9.43046Z" fill="#222A40"/>
<path d="M27.8293 23.8987C27.7997 23.8987 27.7726 23.8804 27.764 23.8524L26.9468 21.1738C26.9365 21.1398 26.9573 21.1045 26.9933 21.0946C27.0298 21.0846 27.067 21.1046 27.0775 21.1384L27.8947 23.8169C27.9051 23.851 27.8843 23.8863 27.8482 23.8962C27.8418 23.8978 27.8356 23.8987 27.8293 23.8987Z" fill="#222A40"/>
<path d="M37.8208 24.6851C37.8044 24.6851 37.7878 24.6795 37.7747 24.6682C37.7471 24.6443 37.7453 24.6039 37.7709 24.5777L39.1945 23.1241C39.2198 23.0982 39.2631 23.0965 39.2906 23.1203C39.3182 23.1443 39.3199 23.1847 39.2944 23.2108L37.8707 24.6645C37.8575 24.6782 37.8392 24.6851 37.8208 24.6851Z" fill="#222A40"/>
<path d="M38.2955 24.6852C38.2715 24.6852 38.2483 24.6733 38.2359 24.6522C38.2177 24.6212 38.2296 24.5823 38.2624 24.5653L39.6595 23.8383C39.6926 23.8212 39.7338 23.8325 39.752 23.8634C39.7702 23.8944 39.7583 23.9333 39.7255 23.9503L38.3284 24.6773C38.3179 24.6826 38.3066 24.6852 38.2955 24.6852Z" fill="#222A40"/>
<path d="M31.9051 38.0356C31.9017 38.0356 31.8983 38.0353 31.8947 38.0348L29.2935 37.6628C29.2563 37.6576 29.2309 37.6249 29.2365 37.59C29.2422 37.5551 29.2763 37.5311 29.3139 37.5364L31.9151 37.9083C31.9523 37.9136 31.9777 37.9462 31.9721 37.9812C31.9671 38.0128 31.9381 38.0356 31.9051 38.0356Z" fill="#10141C"/>
<path d="M45.8351 16.5937C45.8278 16.5937 45.8204 16.5925 45.8131 16.5902L44.9432 16.309C44.9076 16.2976 44.8888 16.2611 44.901 16.2277C44.9132 16.1943 44.9515 16.1766 44.9873 16.188L45.8572 16.4692C45.8928 16.4806 45.9116 16.5171 45.8995 16.5505C45.8898 16.577 45.8634 16.5937 45.8351 16.5937Z" fill="#222A40"/>
<path d="M44.9362 14.9107C44.8428 14.9107 44.7532 14.8924 44.6992 14.8359C44.5588 14.6889 44.5528 14.1052 44.6089 13.8694C44.6709 13.6093 44.9735 13.3959 44.9861 13.387C45.0166 13.3656 45.0589 13.372 45.0812 13.4003C45.1035 13.4287 45.0972 13.4688 45.0672 13.4897C45.0643 13.4917 44.7923 13.6841 44.7416 13.8973C44.6809 14.1519 44.716 14.6621 44.8004 14.7504C44.8583 14.8111 45.0936 14.7755 45.2342 14.7322C45.269 14.7214 45.308 14.7397 45.3199 14.7733C45.3314 14.807 45.3118 14.843 45.2764 14.854C45.2326 14.8674 45.08 14.9107 44.9362 14.9107Z" fill="#222A40"/>
<path d="M45.6313 15.0983C45.5509 15.0983 45.4342 15.0808 45.3068 15.0041C45.1107 14.8861 45.1025 14.4322 45.123 13.9593L45.1255 13.8976C45.1356 13.6257 45.4509 13.4844 45.4643 13.4785C45.4984 13.4634 45.5387 13.4775 45.5544 13.5093C45.5704 13.5412 45.5558 13.5794 45.5218 13.5943C45.5192 13.5955 45.2687 13.709 45.2615 13.9019L45.2588 13.9644C45.2498 14.1714 45.2223 14.8014 45.38 14.8961C45.5543 15.001 45.6953 14.9647 45.7013 14.9632C45.7368 14.9532 45.7749 14.9726 45.7855 15.0063C45.7962 15.04 45.7764 15.0753 45.7408 15.0857C45.7372 15.0869 45.6963 15.0983 45.6313 15.0983Z" fill="#222A40"/>
<path d="M45.82 15.1786C45.7864 15.1786 45.7535 15.1714 45.7223 15.1545C45.5864 15.081 45.5996 14.8405 45.6323 14.4542C45.6413 14.3472 45.6506 14.2366 45.653 14.1407C45.6622 13.7608 45.9071 13.5448 45.9176 13.5357C45.9452 13.5117 45.9881 13.5135 46.0133 13.5394C46.0389 13.5652 46.0371 13.6057 46.0098 13.6298C46.0076 13.6315 45.797 13.8201 45.789 14.1437C45.7864 14.243 45.777 14.3555 45.7679 14.4643C45.7507 14.6672 45.7219 15.0065 45.79 15.0434C45.8567 15.0799 46.0102 14.9731 46.093 14.8898C46.1189 14.8642 46.162 14.8626 46.1891 14.8867C46.2165 14.9108 46.218 14.9512 46.1925 14.9771C46.1688 15.0013 45.9875 15.1784 45.82 15.1786Z" fill="#222A40"/>
<path d="M46.2685 15.1115C46.2409 15.1115 46.2135 15.104 46.1871 15.0895C45.9826 14.9749 45.9194 14.7843 45.9884 14.4898C46.0575 14.1955 46.4901 13.7397 46.5085 13.7204C46.5338 13.6941 46.5766 13.6921 46.6045 13.7155C46.6324 13.7392 46.6349 13.7796 46.6097 13.8059C46.6055 13.8103 46.1825 14.2559 46.1212 14.5173C46.0506 14.8182 46.1501 14.9197 46.2566 14.9794C46.266 14.9846 46.2701 14.9839 46.2755 14.9818C46.3366 14.9583 46.4139 14.7851 46.4461 14.6692C46.4495 14.6564 46.4572 14.6452 46.4678 14.6366L46.8194 14.3564C46.848 14.3336 46.8909 14.3369 46.9153 14.3638C46.9395 14.3908 46.936 14.4311 46.9073 14.4539L46.5717 14.7213C46.5462 14.8062 46.4628 15.0477 46.3269 15.1002C46.3078 15.1079 46.2881 15.1115 46.2685 15.1115Z" fill="#222A40"/>
<path d="M32.979 37.6182C32.9552 37.6182 32.9322 37.6064 32.9197 37.5856C32.9012 37.5547 32.9129 37.5157 32.9456 37.4984L36.3552 35.6953C36.3882 35.6779 36.4293 35.6889 36.4478 35.7196C36.4663 35.7504 36.4546 35.7895 36.4219 35.8068L33.0124 37.6099C33.0017 37.6155 32.9903 37.6182 32.979 37.6182Z" fill="#10141C"/>
<path d="M33.2248 37.767C33.1935 37.767 33.1652 37.7463 33.1584 37.7163C33.1506 37.6817 33.1741 37.6478 33.2109 37.6404L35.443 37.1938C35.4783 37.1874 35.5159 37.2084 35.5236 37.2432C35.5315 37.2777 35.508 37.3117 35.4711 37.3191L33.2391 37.7657C33.2343 37.7664 33.2296 37.767 33.2248 37.767Z" fill="#10141C"/>
<path d="M31.8717 37.6182C31.8625 37.6182 31.8532 37.6164 31.8443 37.6127L28.4171 36.1901C28.3827 36.1759 28.3672 36.1381 28.3823 36.1058C28.3974 36.0735 28.4378 36.0588 28.4719 36.0731L31.8991 37.4957C31.9335 37.5099 31.949 37.5477 31.9339 37.5801C31.9227 37.6039 31.8978 37.6182 31.8717 37.6182Z" fill="#10141C"/>
<path d="M29.5518 57.1855C29.5486 57.1855 29.5454 57.1853 29.5422 57.1849L26.3084 56.7547C26.2713 56.7497 26.2453 56.7173 26.2506 56.6824C26.2558 56.6474 26.2906 56.6236 26.3275 56.628L29.5613 57.0582C29.5985 57.0632 29.6244 57.0955 29.6191 57.1305C29.6143 57.1624 29.5851 57.1855 29.5518 57.1855Z" fill="#10141C"/>
<path d="M35.7385 56.7874C35.7034 56.7874 35.6736 56.7619 35.6709 56.7284C35.6681 56.6932 35.6959 56.6624 35.7333 56.6597L38.8609 56.4294C38.8985 56.4251 38.9311 56.453 38.934 56.4882C38.937 56.5234 38.9089 56.5542 38.8715 56.5569L35.7439 56.7872C35.742 56.7874 35.7404 56.7874 35.7385 56.7874Z" fill="#10141C"/>
<path d="M33.7371 34.7847C33.7343 34.7847 33.7313 34.7846 33.7284 34.7842C30.7653 34.428 29.9898 33.718 29.9582 33.6879C29.9319 33.6628 29.9321 33.6225 29.9586 33.5977C29.985 33.573 30.0281 33.5728 30.0547 33.5978C30.0623 33.6048 30.8418 34.3082 33.7457 34.6571C33.7828 34.6616 33.8093 34.6936 33.8046 34.7288C33.8001 34.7611 33.7709 34.7847 33.7371 34.7847Z" fill="#222A40"/>
<path d="M46.6803 22.6999L46.6762 22.7229C46.6218 22.9047 45.9295 23.0468 45.0809 23.0468C44.2377 23.0468 43.5455 22.9047 43.4856 22.7242L43.4829 22.6999C43.4829 22.5079 44.1996 22.353 45.0809 22.353C45.9649 22.353 46.6803 22.5079 46.6803 22.6999Z" fill="#222A40"/>
<path d="M46.6762 22.7229L46.5034 23.8224L46.1662 25.9818C46.1662 25.9818 45.3488 26.257 44.5573 26.1226C44.3927 26.0957 44.2295 26.0522 44.0758 25.9818V25.7872C44.9068 25.8871 45.1938 25.2944 45.1897 25.1319C45.187 24.9578 45.0455 24.9578 45.0455 24.9578C45.0455 24.9578 45.3257 24.616 45.2495 24.4611C45.1747 24.3063 45.0183 24.3383 45.0183 24.3383C45.0183 24.3383 45.1271 24.2295 45.0455 24.0144C44.9639 23.8007 44.5573 23.7738 44.5573 23.7738C44.6566 23.5523 44.4322 23.3079 44.1819 23.3514C43.9711 23.3885 43.7957 23.6317 43.6719 23.8045H43.6706L43.4856 22.7242C43.5454 22.9047 44.2377 23.0467 45.0809 23.0467C45.9295 23.0467 46.6218 22.9047 46.6762 22.7229Z" fill="#7F85FA"/>
<path d="M63.1337 56.1645L64.5145 59.001L63.9342 59.2384L62.8663 56.9339L63.2893 59.5044L60.778 60.5362C60.5694 60.0258 61.11 58.9367 61.11 58.9367L60.651 57.1659L61.9407 55.5039L62.2574 55.5468C62.6424 55.5986 62.9725 55.8325 63.1337 56.1645Z" fill="#E8A03F"/>
<path d="M58.3977 36.0108C57.0074 36.5321 54.8396 36.6446 54.8396 36.6446C54.8396 36.6446 54.5362 34.3846 54.3161 32.2782C54.155 30.7306 54.0373 29.265 54.1208 28.8366C54.2593 28.1244 55.0806 25.4252 55.5509 23.9008C55.7463 23.2652 55.8809 22.835 55.8809 22.835C56.1389 23.4187 56.5258 23.8044 56.5258 23.8044C56.5069 22.6315 58.0565 21.8068 58.0565 21.8068L60.4406 20.9518L60.3363 18.9239L60.4349 18.8971L62.4074 18.3705L62.5895 18.3223C62.5895 18.3223 63.2364 21.323 63.1699 22.0425C63.1035 22.7618 58.5837 26.7945 58.5837 26.7945L57.9236 29.1847L59.109 35.6522C58.9174 35.7895 58.6727 35.9091 58.3977 36.0108Z" fill="#E8A03F"/>
<path d="M59.4296 15.4037C59.1584 15.2412 58.5514 14.8878 58.3163 14.8342C58.0072 14.7646 57.9141 14.6181 57.8706 14.5253C57.8251 14.4325 57.3605 13.4971 57.3605 13.4971C57.3605 13.4971 57.5862 13.2507 57.9011 13.4596C57.9011 13.4596 57.9049 13.2543 58.2405 13.29C58.2405 13.29 58.3563 13.0597 58.5554 13.0865C58.5554 13.0865 58.747 12.8401 59.0201 12.9043C59.0201 12.9043 59.1396 12.7134 59.443 12.7401C59.7484 12.7687 59.9533 13.0614 59.9703 13.2543C59.9855 13.4149 60.5241 14.4914 60.691 14.8234C60.7213 14.8859 60.7403 14.9216 60.7403 14.9216L62.4076 18.3705L60.435 18.897L59.4296 15.4037Z" fill="#E48C59"/>
<path d="M60.6491 57.1588C60.5333 56.8624 56.8367 47.4015 56.4745 46.7677C56.1387 46.1823 55.1961 43.5528 55.0255 43.0726C56.8804 42.4854 58.6348 41.4338 58.6348 41.4338H58.6405L58.7675 44.2364C58.7675 44.2364 60.0989 45.5396 60.4536 46.7677C60.8102 47.9959 61.9557 55.4826 61.9557 55.4826L61.9405 55.504L60.6508 57.1659L60.6491 57.1588Z" fill="#E48C59"/>
<path d="M55.0255 43.0728C54.6291 43.1977 54.227 43.3013 53.8382 43.3691C53.7131 43.3905 53.5897 43.4084 53.4646 43.4226C51.5319 43.6439 49.6219 43.0371 49.3393 42.9407C49.3147 42.9335 49.3033 42.9299 49.3033 42.9299C49.1193 41.6161 48.2222 35.9163 48.2222 35.9163L49.8666 32.0498C50.7562 32.3247 52.5617 32.737 54.3161 32.2783C54.5362 34.3847 54.8396 36.6446 54.8396 36.6446C54.8396 36.6446 57.0074 36.5321 58.3977 36.0109L58.6405 41.434H58.6348C58.6348 41.434 56.8804 42.4855 55.0255 43.0728Z" fill="#222A40"/>
<path d="M53.1933 21.9835C53.0851 21.9853 52.9865 21.9692 52.9069 21.9265C52.647 21.7872 51.6095 20.9321 51.4122 20.3734C51.3003 20.0521 51.1998 19.2578 51.1353 18.6418C52.2866 18.0582 51.8144 16.9121 52.5066 16.5016C53.1988 16.0893 54.0429 16.5586 54.0429 16.5586C54.2667 17.5565 55.3781 17.9171 55.3781 17.9171C55.4597 17.8904 55.5488 17.8796 55.6342 17.8868C55.8295 17.9046 56.0097 18.0117 56.1254 18.1617C56.2145 18.2724 56.2658 18.4045 56.2866 18.542C56.2942 18.5867 56.298 18.633 56.298 18.6795C56.3018 18.9473 56.1956 19.215 56.0059 19.415C55.8522 19.581 55.6398 19.6987 55.4103 19.7488C55.4046 20.0273 55.3459 20.2754 55.2529 20.4949C54.9171 21.3054 54.1357 21.7159 53.9498 21.7927C53.7243 21.8854 53.436 21.98 53.1933 21.9835Z" fill="#E48C59"/>
<path d="M55.4105 19.7485C55.4105 19.7485 55.822 20.3858 55.6723 21.5961C55.6173 22.053 55.7255 22.4815 55.8809 22.835C55.8809 22.835 55.7463 23.2652 55.5508 23.9007C55.2322 24.1453 54.3426 24.7611 53.5651 24.7023C53.0435 24.6612 52.6452 24.372 52.3872 24.1132C52.6111 23.3849 52.8291 22.7743 53.0112 22.4513L53.106 22.4656L53.0112 23.0065C53.0112 23.0065 55.0804 22.3371 55.2549 20.4949H55.253C55.346 20.2751 55.4048 20.0271 55.4105 19.7485Z" fill="#E48C59"/>
<path d="M55.253 20.4946H55.2549C55.0804 22.3368 53.0112 23.0062 53.0112 23.0062L53.106 22.4653L53.1931 21.9834C53.4359 21.9798 53.7242 21.8852 53.95 21.7924C54.1359 21.7156 54.9173 21.305 55.253 20.4946Z" fill="#222A40"/>
<path d="M55.5508 23.9006C55.3555 24.5362 55.0975 25.3734 54.8567 26.1874C54.7903 26.4034 54.7277 26.6158 54.667 26.8247C54.4906 27.4245 54.335 27.9742 54.2289 28.3741V28.3759C54.1795 28.5705 54.1416 28.7257 54.1208 28.8364C54.1151 28.8686 54.1094 28.9061 54.1055 28.9506C54.0544 29.4844 54.1662 30.8464 54.3161 32.2781C54.0828 32.3388 53.8495 32.3835 53.6181 32.4156C53.4911 32.4353 53.362 32.4477 53.235 32.4585C52.5275 32.5173 51.8448 32.4656 51.2512 32.371C51.1223 32.3515 50.997 32.3282 50.8776 32.305C50.4754 32.2246 50.1303 32.1318 49.8667 32.0498L50.8303 29.788L51.0484 29.2722L51.0863 29.1847C51.0863 29.1847 51.2589 28.4047 51.5131 27.3657C51.5415 27.2532 51.57 27.1355 51.6003 27.0141C51.8299 26.0859 52.1125 25.0112 52.3875 24.1134C52.6455 24.3722 53.0437 24.6613 53.5654 24.7024C54.3426 24.7611 55.2322 24.1452 55.5508 23.9006Z" fill="#7F85FA"/>
<path d="M54.8566 26.1873C54.7903 26.4033 54.7277 26.6157 54.6669 26.8246C54.4848 26.9549 54.2895 27.0708 54.0809 27.1691C53.292 27.5405 52.3454 27.6261 51.5128 27.3655C51.5412 27.253 51.5697 27.1352 51.6 27.0139C52.3624 27.2637 53.2312 27.1871 53.9537 26.8301C54.2933 26.6621 54.5949 26.4425 54.8566 26.1873Z" fill="#A0A8FB"/>
<path d="M54.2289 28.376C54.1795 28.5705 54.1416 28.7258 54.1208 28.8365C54.115 28.8686 54.1093 28.9062 54.1055 28.9507C53.7186 29.3524 53.5005 29.9165 53.4133 30.4592C53.309 31.1179 53.3849 31.7909 53.6181 32.4157C53.4911 32.4354 53.362 32.4478 53.235 32.4585C52.9903 31.7641 52.9278 31.0179 53.0605 30.2896C53.1951 29.5523 53.5763 28.7954 54.2289 28.376Z" fill="#A0A8FB"/>
<path d="M51.2511 32.3709C51.1221 32.3513 50.9969 32.328 50.8775 32.3048C51.0899 31.4765 51.069 30.6036 50.83 29.7878L51.0482 29.272C51.4332 30.2555 51.5148 31.3426 51.2511 32.3709Z" fill="#A0A8FB"/>
<path d="M54.5949 57.6265L54.6537 60.7433H54.0221V58.2299L53.3184 60.7433H50.5778C50.6043 60.1988 51.5621 59.4044 51.5621 59.4044L51.9395 57.3605L53.6522 56.4929L54.0543 56.7286C54.3844 56.9215 54.5892 57.2605 54.5949 57.6265Z" fill="#E8A03F"/>
<path d="M58.0564 21.8068C58.0564 21.8068 56.5068 22.6315 56.5257 23.8044C56.5257 23.8044 56.1388 23.4188 55.8808 22.835C55.7252 22.4816 55.6172 22.0532 55.6722 21.5961C55.822 20.3859 55.4104 19.7486 55.4104 19.7486C55.6399 19.6986 55.8524 19.5808 56.0059 19.4147C56.1956 19.2148 56.3018 18.947 56.298 18.6792C56.298 18.6328 56.2942 18.5865 56.2866 18.5418C56.2658 18.4043 56.2145 18.2722 56.1254 18.1615C56.0097 18.0116 55.8295 17.9045 55.6342 17.8865C55.5488 17.8794 55.4597 17.8901 55.3781 17.9169C55.3781 17.9169 54.2666 17.5563 54.0429 16.5584C54.0429 16.5584 53.1989 16.0889 52.5066 16.5013C51.8144 16.912 52.2866 18.0579 51.1353 18.6416C51.1998 19.2574 51.3003 20.0519 51.4122 20.3732C51.6094 20.9319 52.647 21.787 52.9069 21.9262C52.9866 21.9691 53.0852 21.9851 53.1933 21.9833L53.106 22.4652L53.0112 22.451C53.0112 22.451 51.327 22.8152 50.2003 23.2169C50.0922 22.3011 50.6555 21.8869 50.8983 21.1319C51.1487 20.3518 50.8319 19.0147 50.8319 19.0147C50.8319 19.0147 50.3767 18.0348 50.4242 17.5509C50.4698 17.0672 51.2341 15.7461 52.4536 15.2928C53.0017 15.0892 53.5043 15.1571 53.8912 15.2928C54.3655 15.4588 54.667 15.7283 54.667 15.7283C54.667 15.7283 55.7822 15.7587 56.1046 16.6709C56.2772 17.1582 56.3607 17.8598 56.4763 18.5113C56.5787 19.079 56.7059 19.6074 56.9353 19.9215C57.4286 20.5966 58.0564 21.1928 58.0564 21.8068Z" fill="#222A40"/>
<path d="M53.1515 47.7853C54.022 49.126 53.6523 56.4931 53.6523 56.4931L51.9396 57.3606L49.3393 42.9407C49.6219 43.0371 51.5319 43.644 53.4646 43.4226L53.1515 47.7853Z" fill="#E48C59"/>
<path d="M52.3872 24.1133C51.7537 26.1787 51.0861 29.1847 51.0861 29.1847L49.8666 32.0498L48.2222 35.9163C47.5982 35.6431 46.7276 34.8416 46.7276 34.8416L48.1557 31.6695C48.1557 31.6695 46.9362 31.9175 46.5075 31.5463C46.0808 31.1732 45.1893 28.2457 45.1893 28.2457C45.2442 28.1707 45.3088 28.1011 45.379 28.035C45.8664 27.5781 46.6706 27.3353 46.9419 27.2638C47.0007 27.2477 47.0348 27.2407 47.0348 27.2407L47.325 27.985C47.325 27.985 48.6565 24.1399 49.3431 23.6187C49.5138 23.4884 49.8267 23.3509 50.2005 23.217C51.3271 22.8153 53.0113 22.4512 53.0113 22.4512C52.8291 22.7744 52.6111 23.3849 52.3872 24.1133Z" fill="#E8A03F"/>
<path d="M47.0613 23.8042L46.4961 24.9324V25.634L46.9418 27.2638C46.6706 27.3352 45.8663 27.5779 45.3788 28.035L45.2764 26.8497C45.2764 26.8497 44.6296 26.3017 44.5577 26.1232C45.3487 26.2571 46.166 25.9821 46.166 25.9821L46.5036 23.8221C46.7674 23.5686 47.0613 23.8042 47.0613 23.8042Z" fill="#E48C59"/>
<path d="M44.076 25.7875C44.0192 25.7821 43.9603 25.7732 43.8977 25.7589C43.8977 25.7589 43.6645 25.5536 43.8466 25.3734C43.8466 25.3734 43.6645 25.0878 43.7346 24.9646C43.8029 24.8397 43.839 24.7842 43.839 24.7842C43.839 24.7842 43.6683 24.4647 43.7726 24.288C43.7726 24.288 43.4862 24.0559 43.6095 23.8917C43.6284 23.8667 43.6494 23.8364 43.6721 23.8043C43.7953 23.6311 43.9717 23.3884 44.1822 23.3509C44.4326 23.308 44.6563 23.5526 44.5577 23.7739C44.5577 23.7739 44.9635 23.8007 45.0451 24.0149C45.1267 24.2292 45.0186 24.338 45.0186 24.338C45.0186 24.338 45.1742 24.3059 45.2501 24.4612C45.326 24.6164 45.0453 24.9574 45.0453 24.9574C45.0453 24.9574 45.1875 24.9574 45.1894 25.1324C45.1931 25.2948 44.9068 25.8875 44.076 25.7875Z" fill="#E48C59"/>
<path d="M52.4495 18.8535C52.4495 18.8535 52.6595 19.1154 52.729 19.472C52.7985 19.8286 52.5915 20.1027 52.4445 20.1118C52.2974 20.1207 52.0011 20.0155 51.9858 19.8268C51.9858 19.8268 52.0162 19.6913 52.1063 19.5704C52.1963 19.4496 52.4495 18.8535 52.4495 18.8535Z" fill="#E07045"/>
<path d="M52.6279 20.2021C52.626 20.2021 52.6244 20.202 52.6225 20.2019C52.4058 20.186 52.2003 20.1212 52.028 20.0145C51.9145 19.9442 51.8841 19.8033 51.9574 19.6865C52.1546 19.3727 52.3139 19.0431 52.4309 18.7067C52.4426 18.673 52.481 18.6547 52.5167 18.6659C52.5524 18.6769 52.5719 18.713 52.5602 18.7466C52.44 19.0917 52.2766 19.4299 52.0745 19.7517C52.0377 19.8103 52.0491 19.8746 52.1026 19.9076C52.2557 20.0024 52.4392 20.06 52.633 20.0742C52.6704 20.0769 52.6984 20.1078 52.6954 20.143C52.6929 20.1766 52.663 20.2021 52.6279 20.2021Z" fill="#222A40"/>
<path d="M53.2796 18.5973C53.3045 18.7677 53.4524 18.8893 53.6099 18.8689C53.7673 18.8486 53.8748 18.694 53.8499 18.5236C53.825 18.3532 53.6772 18.2316 53.5197 18.252C53.3622 18.2723 53.2548 18.427 53.2796 18.5973Z" fill="#222A40"/>
<path d="M51.4854 18.8295C51.5103 18.9999 51.6581 19.1215 51.8156 19.1011C51.9731 19.0808 52.0805 18.9261 52.0558 18.7558C52.0309 18.5854 51.8831 18.4638 51.7256 18.4842C51.5679 18.5045 51.4605 18.6591 51.4854 18.8295Z" fill="#222A40"/>
<path d="M53.3656 17.6605C53.5653 17.6505 53.7588 17.6735 53.9496 17.7295C53.984 17.7396 54.0173 17.775 54.031 17.8051C54.0459 17.8377 54.048 17.8833 54.0319 17.9161C54.0155 17.949 53.9886 17.9796 53.9515 17.9928C53.9114 18.007 53.8744 18.0054 53.8336 17.9935C53.8234 17.9906 53.8129 17.9879 53.8027 17.9851C53.6874 17.9573 53.5692 17.9431 53.4501 17.9423C53.4356 17.9427 53.4214 17.9428 53.4069 17.9436C53.366 17.9457 53.3282 17.9399 53.2946 17.916C53.265 17.8948 53.2394 17.8571 53.236 17.8216C53.2289 17.7496 53.2807 17.6646 53.3656 17.6605Z" fill="#222A40"/>
<path d="M51.8813 17.8524C51.6862 17.8935 51.5065 17.9648 51.3387 18.0672C51.3085 18.0856 51.2866 18.1282 51.282 18.1606C51.2771 18.1958 51.2881 18.2402 51.3131 18.2676C51.3383 18.2951 51.3729 18.3178 51.4124 18.321C51.4551 18.3246 51.4902 18.3137 51.5261 18.2918C51.5351 18.2863 51.5443 18.2812 51.5534 18.2758C51.6565 18.2197 51.7663 18.176 51.8806 18.1451C51.8946 18.1418 51.9085 18.1383 51.9225 18.1354C51.9625 18.1269 51.9973 18.1118 52.0228 18.0802C52.0452 18.0523 52.0589 18.0096 52.0521 17.9745C52.0385 17.9035 51.9643 17.8348 51.8813 17.8524Z" fill="#222A40"/>
<path d="M55.4646 19.5027C55.4285 19.5027 55.3984 19.476 55.3968 19.4415C55.3777 19.0487 55.5408 18.6463 55.8328 18.3652C55.859 18.34 55.9021 18.3395 55.9289 18.3642C55.9557 18.3889 55.9563 18.4294 55.93 18.4547C55.6639 18.7108 55.5152 19.0776 55.5325 19.4358C55.5343 19.4711 55.5053 19.5009 55.4676 19.5026C55.4667 19.5027 55.4656 19.5027 55.4646 19.5027Z" fill="#222A40"/>
<path d="M52.4303 20.725C52.5469 20.8752 52.8242 21.1358 53.278 21.0025C53.6924 20.8825 53.7433 20.5001 53.7391 20.3063C53.7389 20.2464 53.6762 20.206 53.6171 20.2249L52.4766 20.5945C52.4174 20.6133 52.3944 20.6795 52.4303 20.725Z" fill="white"/>
<path d="M54.3207 19.0945C53.7105 19.0945 53.7095 19.987 54.3207 19.987C54.9308 19.987 54.9319 19.0945 54.3207 19.0945Z" fill="#E07045"/>
<path d="M57.2676 21.2302C57.2493 21.2302 57.2311 21.2233 57.2178 21.2098C56.7882 20.7751 56.7043 20.1708 56.7096 19.7404C56.7136 19.4051 56.7678 19.07 56.82 18.7458C56.8483 18.5703 56.8777 18.3888 56.8983 18.2104C56.971 17.587 56.9126 17.1205 56.7149 16.7421C56.3583 16.0596 55.4367 15.6763 54.6605 15.8877C54.6247 15.8972 54.5867 15.878 54.5763 15.8439C54.5659 15.81 54.5866 15.7746 54.6228 15.7647C55.4592 15.5371 56.4527 15.9502 56.8369 16.6857C57.0466 17.0868 57.1091 17.5759 57.0335 18.2245C57.0124 18.4056 56.9829 18.5884 56.9545 18.7651C56.903 19.0849 56.8496 19.4156 56.8456 19.742C56.8407 20.1491 56.9185 20.7192 57.3175 21.1228C57.3431 21.1488 57.3416 21.1892 57.3141 21.2133C57.3008 21.2244 57.2842 21.2302 57.2676 21.2302Z" fill="#222A40"/>
<path d="M50.5942 22.7774C50.5917 22.7774 50.5893 22.7773 50.5868 22.777C50.165 22.7349 49.8843 22.3335 49.8568 21.9696C49.8266 21.5678 50.033 21.1851 50.1909 20.932C50.2404 20.8526 50.2924 20.7741 50.3445 20.6956C50.4882 20.4787 50.6366 20.2543 50.7272 20.0133C50.9785 19.3451 50.7774 18.5836 50.6158 17.9717C50.6068 17.9374 50.629 17.9027 50.6653 17.8941C50.7027 17.8853 50.7387 17.9065 50.7479 17.9408C50.9139 18.5694 51.1204 19.3516 50.8556 20.056C50.7601 20.3101 50.6075 20.5405 50.4599 20.7632C50.4085 20.8408 50.3571 20.9182 50.3082 20.9968C50.1469 21.2552 49.9653 21.5983 49.9927 21.9604C50.0162 22.2717 50.2504 22.6146 50.6014 22.6495C50.6387 22.6533 50.6659 22.6847 50.6618 22.7199C50.658 22.753 50.6285 22.7774 50.5942 22.7774Z" fill="#222A40"/>
<path d="M59.5813 13.8904C59.4146 13.8904 59.2511 13.7989 59.1511 13.6925C59.018 13.5506 58.9618 13.0161 58.952 12.9103C58.9488 12.8751 58.9765 12.844 59.0138 12.841C59.0502 12.837 59.0842 12.8639 59.0875 12.8991C59.1089 13.1277 59.1726 13.5222 59.2531 13.6078C59.3551 13.7165 59.5338 13.7988 59.6781 13.7457C59.6977 13.7111 59.6135 13.556 59.4797 13.4067C59.4663 13.3917 59.4608 13.3718 59.465 13.3526L59.5178 13.11C59.5254 13.0753 59.5606 13.0531 59.5982 13.0601C59.6349 13.0671 59.6586 13.1009 59.6512 13.1356L59.605 13.3481C59.683 13.4387 59.8471 13.6483 59.8129 13.7752C59.8018 13.8168 59.7716 13.8485 59.7279 13.8646C59.6798 13.8824 59.6304 13.8904 59.5813 13.8904Z" fill="#222A40"/>
<path d="M59.1952 14.081C59.1861 14.081 59.1767 14.0805 59.1673 14.0793C59.0152 14.0614 58.9031 13.9204 58.7732 13.7572C58.7398 13.7151 58.7051 13.6713 58.6681 13.6279C58.4837 13.4108 58.4871 13.0986 58.4873 13.0856C58.488 13.0502 58.5239 13.0235 58.5564 13.0227C58.5938 13.0232 58.6239 13.0523 58.6233 13.0876C58.6233 13.0904 58.6209 13.3674 58.7743 13.5479C58.8121 13.5926 58.8479 13.6374 58.8822 13.6805C58.9933 13.8204 59.0894 13.9412 59.1843 13.9524C59.2748 13.9626 59.3901 13.8404 59.4332 13.7796C59.4542 13.7503 59.4966 13.7424 59.5275 13.7619C59.5588 13.7816 59.5672 13.8213 59.5464 13.8507C59.5287 13.8752 59.3773 14.081 59.1952 14.081Z" fill="#222A40"/>
<path d="M58.9884 14.1702C58.822 14.1702 58.6174 14.0623 58.4217 13.8703C58.1426 13.5969 58.1711 13.2965 58.1726 13.2838C58.1763 13.2486 58.2121 13.2234 58.247 13.2266C58.2843 13.2302 58.3116 13.2613 58.308 13.2964C58.3069 13.3067 58.2859 13.5526 58.5197 13.7817C58.6927 13.9513 58.8796 14.0507 59.0045 14.0417C59.0538 14.0381 59.0916 14.0176 59.1201 13.9794C59.1416 13.9502 59.1841 13.9435 59.2148 13.9636C59.2455 13.9838 59.253 14.0238 59.2314 14.0527C59.1796 14.1225 59.1048 14.1627 59.015 14.1692C59.0063 14.1698 58.9973 14.1702 58.9884 14.1702Z" fill="#222A40"/>
<path d="M58.455 14.3467C58.277 14.3467 58.165 14.2073 58.036 14.0463C58.0047 14.0074 57.972 13.9667 57.9367 13.926C57.74 13.699 57.8326 13.4484 57.8367 13.4379C57.8496 13.4046 57.8883 13.3872 57.9239 13.3994C57.9591 13.4113 57.9775 13.4478 57.965 13.4809C57.9621 13.4889 57.8952 13.6755 58.0422 13.8451C58.0785 13.8871 58.1123 13.9289 58.1445 13.9691C58.258 14.1106 58.3473 14.2217 58.4616 14.2186C58.5868 14.2145 58.7132 14.0787 58.7513 14.0268C58.7728 13.9977 58.8154 13.9906 58.8458 14.0105C58.8769 14.0306 58.8846 14.0702 58.8634 14.0993C58.8562 14.1091 58.6859 14.3393 58.4664 14.3465C58.4626 14.3466 58.4587 14.3467 58.455 14.3467Z" fill="#222A40"/>
<path d="M59.2483 14.6505C59.2233 14.6505 59.1993 14.6375 59.1874 14.6151C59.1803 14.6016 59.0156 14.2824 59.1885 13.9785C59.2061 13.9473 59.2476 13.9359 59.2805 13.9523C59.3136 13.9689 59.3261 14.0078 59.3083 14.0389C59.1693 14.2837 59.3079 14.5556 59.3094 14.5582C59.3258 14.5899 59.3121 14.6283 59.2783 14.6439C59.2687 14.6484 59.2584 14.6505 59.2483 14.6505Z" fill="#222A40"/>
<path d="M59.5646 15.3826C59.5476 15.3826 59.5306 15.3767 59.5174 15.3647C59.4904 15.3403 59.4896 15.2997 59.5155 15.2743C59.5302 15.26 59.8778 14.9232 60.1934 14.877C60.2301 14.8725 60.2653 14.8955 60.271 14.9304C60.2767 14.9652 60.2513 14.998 60.2143 15.0035C59.9441 15.043 59.6166 15.3598 59.6135 15.3632C59.6003 15.3761 59.5824 15.3826 59.5646 15.3826Z" fill="#222A40"/>
<path d="M61.3245 21.598C61.3088 21.598 61.2932 21.5929 61.2803 21.5827L60.5553 20.9995C60.5316 20.9805 60.5247 20.9488 60.5385 20.9226C60.5523 20.8963 60.5827 20.8825 60.6136 20.8883L61.6945 21.1034C61.7312 21.1107 61.7546 21.1448 61.747 21.1793C61.7391 21.2141 61.7026 21.2356 61.6664 21.2287L60.8467 21.0655L61.3688 21.4854C61.3974 21.5083 61.4006 21.5487 61.3763 21.5756C61.3627 21.5905 61.3435 21.598 61.3245 21.598Z" fill="#222A40"/>
<path d="M54.1341 29.116C54.1174 29.116 54.1005 29.1102 54.0873 29.0985C54.0601 29.0741 54.0589 29.0337 54.0846 29.008L56.451 26.6526L55.773 25.79C55.7531 25.7647 55.7558 25.7295 55.7793 25.7071L57.5994 23.9696L57.2009 22.1048C57.1934 22.0701 57.2174 22.0364 57.2542 22.0294C57.2903 22.0222 57.3268 22.0449 57.3343 22.0796L57.7399 23.9777C57.7442 23.9986 57.7374 24.0201 57.7217 24.0353L55.9169 25.7579L56.5942 26.6195C56.6137 26.6444 56.6115 26.679 56.5889 26.7015L54.1833 29.0959C54.17 29.1093 54.1521 29.116 54.1341 29.116Z" fill="#222A40"/>
<path d="M50.9143 29.1905C50.8803 29.1905 50.8508 29.1665 50.8469 29.1338L50.5007 26.2804C50.4984 26.2614 50.5054 26.2424 50.5196 26.2286L51.0623 25.7029L50.5077 24.6643C50.4973 24.645 50.498 24.6222 50.5096 24.6035L51.6625 22.7302C51.6814 22.6995 51.723 22.6891 51.7555 22.7069C51.7878 22.7246 51.799 22.7638 51.7802 22.7944L50.6459 24.6377L51.2056 25.6861C51.2187 25.7105 51.2139 25.7399 51.1937 25.7595L50.6397 26.2961L50.9823 29.1194C50.9865 29.1546 50.9597 29.1862 50.9225 29.1901C50.9195 29.1904 50.9169 29.1905 50.9143 29.1905Z" fill="#222A40"/>
<path d="M47.9521 32.1858C47.9442 32.1858 47.9365 32.1845 47.9286 32.1819C47.8934 32.1697 47.8753 32.1329 47.8882 32.0996L49.0301 29.1777C48.6781 27.2111 49.4861 25.1906 49.4942 25.1702C49.5077 25.1372 49.5473 25.1208 49.5821 25.1334C49.6172 25.146 49.6347 25.183 49.6213 25.2161C49.6131 25.236 48.8141 27.2363 49.1673 29.1729C49.1693 29.1839 49.1681 29.1953 49.1642 29.2058L48.016 32.1439C48.0057 32.1698 47.9797 32.1858 47.9521 32.1858Z" fill="#222A40"/>
<path d="M48.0639 29.695C48.0371 29.695 48.0116 29.6799 48.0008 29.6549L46.9718 27.2646C46.9577 27.2319 46.9747 27.1945 47.0094 27.1813C47.0441 27.1679 47.0838 27.1837 47.0979 27.2165L48.1269 29.6069C48.141 29.6397 48.124 29.6769 48.0894 29.6902C48.0811 29.6934 48.0724 29.695 48.0639 29.695Z" fill="#222A40"/>
<path d="M43.8465 25.4374C43.8325 25.4374 43.8185 25.4334 43.8064 25.4251C43.7761 25.4043 43.7696 25.3643 43.7916 25.3359C43.8006 25.3243 44.0161 25.0502 44.3832 25.0003C44.7198 24.9546 45.0285 24.8955 45.0316 24.8948C45.0677 24.8879 45.1043 24.91 45.1119 24.9447C45.1194 24.9793 45.0957 25.0132 45.0587 25.0203C45.0556 25.0209 44.7432 25.0808 44.4025 25.127C44.0935 25.169 43.9034 25.4089 43.9013 25.4113C43.8882 25.4283 43.8675 25.4374 43.8465 25.4374Z" fill="#222A40"/>
<path d="M43.8388 24.8481C43.8288 24.8481 43.8188 24.8461 43.8091 24.8416C43.7755 24.8261 43.7613 24.7882 43.7776 24.7565C43.7833 24.7452 43.9228 24.481 44.322 24.4173C44.6829 24.3597 44.9971 24.2772 45.0002 24.2765C45.0365 24.2665 45.0739 24.2868 45.084 24.3209C45.0941 24.3549 45.0731 24.3901 45.0368 24.3997C45.0337 24.4005 44.713 24.4847 44.3447 24.5436C44.0176 24.5958 43.9045 24.8037 43.8998 24.8125C43.888 24.8349 43.8638 24.8481 43.8388 24.8481Z" fill="#222A40"/>
<path d="M43.7726 24.3518C43.7643 24.3518 43.7557 24.3504 43.7475 24.3473C43.7127 24.3343 43.6956 24.2973 43.7095 24.2645C43.7175 24.2453 43.9136 23.7927 44.5486 23.7104C44.5848 23.7052 44.6201 23.7299 44.6253 23.7651C44.6305 23.8 44.6045 23.8324 44.5672 23.8373C44.0137 23.9091 43.8429 24.2953 43.8359 24.3116C43.8251 24.3366 43.7995 24.3518 43.7726 24.3518Z" fill="#222A40"/>
<path d="M51.5348 48.271C51.5213 48.271 51.508 48.2674 51.4961 48.2596C50.7768 47.7917 50.5171 47.2631 50.5065 47.2409C50.491 47.2087 50.5061 47.1709 50.5402 47.1563C50.5745 47.1419 50.6147 47.1559 50.6302 47.188C50.6328 47.1933 50.8873 47.7078 51.5735 48.1544C51.6045 48.1745 51.6121 48.2144 51.5908 48.2434C51.5776 48.2614 51.5564 48.271 51.5348 48.271Z" fill="#222A40"/>
<path d="M58.0643 46.8817C58.0616 46.8817 58.0591 46.8816 58.0564 46.8813C57.2691 46.7971 56.5022 46.0992 56.47 46.0694C56.4432 46.0448 56.4426 46.0043 56.4689 45.9789C56.4951 45.9539 56.5382 45.9531 56.565 45.9779C56.5726 45.9848 57.3311 46.6747 58.0718 46.7541C58.109 46.758 58.136 46.7898 58.1317 46.825C58.1278 46.8575 58.0984 46.8817 58.0643 46.8817Z" fill="#222A40"/>
<path d="M44.5049 22.0477C44.4791 22.0477 44.4543 22.0337 44.4429 22.01L43.854 20.783C43.8386 20.7508 43.8539 20.7129 43.888 20.6983C43.9223 20.6838 43.9625 20.698 43.978 20.7302L44.5669 21.9572C44.5823 21.9894 44.5671 22.0273 44.5329 22.0419C44.5238 22.0459 44.5143 22.0477 44.5049 22.0477Z" fill="#222A40"/>
<path d="M44.2105 22.2348C44.1935 22.2348 44.1765 22.2289 44.1633 22.2169L43.3417 21.4726C43.3147 21.4481 43.3138 21.4076 43.3398 21.3821C43.3662 21.3567 43.409 21.356 43.436 21.3803L44.2575 22.1246C44.2846 22.1491 44.2854 22.1896 44.2594 22.2151C44.2461 22.2283 44.2283 22.2348 44.2105 22.2348Z" fill="#222A40"/>
<path d="M44.8915 22.0116H44.891C44.8535 22.0114 44.8233 21.9826 44.8235 21.9471L44.8323 20.8389C44.8325 20.8037 44.863 20.7754 44.9003 20.7754H44.9008C44.9383 20.7756 44.9685 20.8046 44.9683 20.8399L44.9595 21.9481C44.9593 21.9832 44.9288 22.0116 44.8915 22.0116Z" fill="#222A40"/>
<path d="M49.9218 37.9492C49.9075 37.9492 49.8929 37.9449 49.8806 37.9361C49.8506 37.9147 49.8448 37.8747 49.8676 37.8465L52.957 34.0246C52.9796 33.9964 53.0223 33.9909 53.0522 34.0124C53.0821 34.0338 53.088 34.0738 53.0651 34.102L49.9758 37.9239C49.9626 37.9405 49.9423 37.9492 49.9218 37.9492Z" fill="#222A40"/>
<path d="M50.9145 38.0732C50.8978 38.0732 50.881 38.0675 50.8678 38.0558C50.8405 38.0316 50.8391 37.9911 50.865 37.9653L52.9617 35.8721C52.9877 35.8464 53.0305 35.8453 53.0578 35.8695C53.0852 35.8936 53.0865 35.9342 53.0607 35.96L50.964 38.0531C50.9507 38.0664 50.9326 38.0732 50.9145 38.0732Z" fill="#222A40"/>
<path d="M24.0395 19.8416L23.9902 20.2343C23.5994 20.3397 23.1481 20.3575 22.7573 20.3415L22.7251 20.1611L22.8502 19.7612C23.1804 19.8755 24.0395 19.8416 24.0395 19.8416Z" fill="#7F85FA"/>
<path d="M24.829 16.8518L24.7733 17.4726C24.7637 17.4278 24.7515 17.3907 24.7325 17.3676C24.6481 17.2678 22.7251 17.5456 22.7251 17.5456C22.7251 17.5456 22.5225 17.7043 22.7251 17.9616C22.7251 17.9616 22.4762 18.1241 22.4898 18.2675C22.5034 18.4083 22.5769 18.5081 22.5769 18.5081C22.5769 18.5081 22.3851 18.7347 22.4123 18.9049C22.4381 19.0752 22.4545 19.2019 22.9182 19.2019C22.9182 19.2019 22.668 19.4451 22.7251 19.6678C22.7346 19.7062 22.7809 19.7382 22.8502 19.7612L22.7251 20.1606L22.7577 20.3411C22.2151 20.3206 21.7867 20.2348 21.7867 20.2348L21.1638 16.8518C21.2141 16.976 22.0152 17.0745 22.9971 17.0745C23.9777 17.0745 24.7787 16.976 24.829 16.8518Z" fill="#7F85FA"/>
<path d="M25.206 18.8044C25.2648 18.9864 24.8969 19.2346 24.8969 19.2346C24.8969 19.2346 24.9405 19.3863 24.8969 19.5488C24.8532 19.7094 24.5973 19.961 24.5973 19.961L24.3772 20.7143H22.8238L22.7575 20.3412C23.1482 20.3572 23.5996 20.3394 23.9903 20.2341L24.0397 19.8414C24.0397 19.8414 23.1804 19.8753 22.8505 19.761C22.7803 19.7378 22.7348 19.7057 22.7254 19.6682C22.6685 19.4451 22.9189 19.2023 22.9189 19.2023C22.4542 19.2023 22.4391 19.0755 22.4124 18.9041C22.3859 18.7345 22.5774 18.5079 22.5774 18.5079C22.5774 18.5079 22.5034 18.4079 22.4901 18.2668C22.4768 18.124 22.7252 17.9616 22.7252 17.9616C22.5223 17.7045 22.7252 17.5457 22.7252 17.5457C22.7252 17.5457 24.6484 17.2671 24.7319 17.3671C24.7508 17.3903 24.7641 17.4278 24.7737 17.4725V17.4743C24.8059 17.6225 24.7945 17.8438 24.7945 17.8438C24.7945 17.8438 24.9558 17.8759 25.0618 17.9813C25.1662 18.0866 25.0638 18.4971 25.0638 18.4971C25.0638 18.4971 25.1473 18.6223 25.206 18.8044Z" fill="#E48C59"/>
<path d="M24.5707 20.7143H22.6721L22.6019 22.2851C22.6019 22.2851 19.1671 19.8216 18.5962 19.5235C18.0253 19.2254 15.0096 19.3075 15.0096 19.3075L14.4026 21.6156C14.4026 21.6156 14.1295 20.9854 13.7653 20.6284L13.7634 20.6302L12.284 20.7623C11.7985 21.3192 11.7415 22.1619 11.7415 22.1619L9.64004 20.0769C9.64004 20.0769 7.25977 21.2853 6.90889 21.6156C6.5561 21.9458 4.29714 28.19 4.25349 28.5721C4.20983 28.9524 4.32366 29.4557 4.50006 29.811C4.67645 30.168 9.29868 34.5754 9.29868 34.5754C9.29868 34.5754 9.36695 34.5361 9.47697 34.4647C9.7842 34.263 10.412 33.8078 10.6927 33.3008V33.299C10.7457 33.2026 10.7875 33.1045 10.8103 33.0045C10.8103 33.0045 12.0754 33.3347 13.0769 33.4187C14.0784 33.5009 15.7133 32.7368 15.7133 32.7368C15.7133 32.7368 17.0922 33.0367 17.8053 32.8386C18.308 32.6975 19.1539 31.9568 19.6072 31.4408C19.7969 31.2249 19.9163 31.0481 19.9144 30.9695C19.9049 30.7053 19.334 29.8449 19.334 29.8449L18.7896 27.2441L18.1732 24.3041C18.1732 24.3041 23.1292 26.1392 23.85 26.0071C24.5707 25.875 25.1606 25.6519 25.2043 24.8504C25.2478 24.0472 24.5707 20.7143 24.5707 20.7143ZM8.24427 29.0507L9.1756 27.0996L9.31405 30.7001L8.24427 29.0507Z" fill="white"/>
<path d="M21.2193 59.9865C21.6347 60.315 21.4165 60.7434 21.4165 60.7434H19.1102L15.7494 59.7259V57.0964H18.1203L18.0558 57.8765C18.0558 57.8765 20.8038 59.6581 21.2193 59.9865Z" fill="#222A40"/>
<path d="M10.0631 57.0963H7.69226H7.39075L9.71798 34.929L10.2263 37.1479C11.0172 36.6588 11.628 34.8522 11.628 34.8522L12.2691 35.9697C13.0923 35.6662 11.939 34.115 11.7683 33.9097C11.5957 33.7061 10.9508 33.5633 10.9508 33.5633L10.6928 33.3009V33.2991C10.7459 33.2027 10.7876 33.1045 10.8105 33.0046C10.8105 33.0046 12.0755 33.3348 13.077 33.4188C14.0785 33.501 15.7134 32.7369 15.7134 32.7369C15.7134 32.7369 17.0923 33.0368 17.8055 32.8387C18.3081 32.6976 19.1541 31.9569 19.6074 31.4409C19.6074 31.4409 20.4931 33.7865 20.5462 35.336C20.5993 36.8872 18.4106 57.0963 18.4106 57.0963H18.1203H15.7494H15.4327L14.7195 38.9847L10.2907 57.0963H10.0631Z" fill="#222A40"/>
<path d="M16.6275 27.646L16.4511 29.4488L14.1675 29.2828C11.8195 26.5533 12.8664 22.021 12.8664 22.021C12.8664 22.021 13.424 22.0781 13.7066 21.855C13.4715 24.6184 16.6275 27.646 16.6275 27.646Z" fill="#6455E7"/>
<path d="M15.0096 19.3077L14.4027 21.6158C14.4027 21.6158 14.1296 20.9857 13.7654 20.6287C13.6706 20.5377 13.5701 20.4645 13.4677 20.4252L14.0214 19.6023L14.4027 19.0346C14.4027 19.0346 14.7802 18.9739 15.0096 19.3077Z" fill="#D6DBEB"/>
<path d="M14.2358 14.4772C14.2358 14.4772 14.469 16.4497 14.3857 17.0317C14.3193 17.4977 14.0784 18.2314 13.866 18.6009C13.813 18.6955 13.7598 18.7651 13.7142 18.8026C13.4866 18.9848 12.4093 18.9722 12.1723 18.8687C11.9806 18.7847 11.0664 18.5223 10.5828 17.7297V17.7279C10.4747 17.5494 10.3874 17.346 10.3363 17.1121C10.1011 17.1032 9.86964 17.0247 9.68373 16.889C9.45797 16.7248 9.30061 16.4802 9.25125 16.216C9.22473 16.0661 9.23234 15.9089 9.28157 15.7644C9.293 15.7341 9.30619 15.7055 9.31952 15.677C9.40493 15.511 9.56037 15.3735 9.74819 15.3218C9.83169 15.3004 9.92077 15.295 10.0062 15.3075C10.0062 15.3075 10.8805 14.9237 10.7592 13.8776C11.112 13.6276 11.571 13.5348 12.0148 13.533C12.4814 13.5312 12.9423 13.6168 13.4069 13.6669C13.6079 13.6883 13.8184 13.7026 14.0138 13.6651C14.1447 13.9115 14.2206 14.1863 14.2339 14.4774L14.2358 14.4772Z" fill="#E48C59"/>
<path d="M13.8659 18.6008L14.0215 19.6022C10.655 19.9646 10.5848 17.8064 10.5829 17.7297C11.0665 18.5223 11.9807 18.7847 12.1723 18.8687C12.4094 18.9722 13.4868 18.9848 13.7143 18.8026C13.7597 18.765 13.8127 18.6954 13.8659 18.6008Z" fill="#222A40"/>
<path d="M10.3647 18.9114L10.5828 17.7297C10.5847 17.8065 10.6549 19.9646 14.0214 19.6022L13.4677 20.4252L12.432 20.6108L10.2831 19.3576L10.3647 18.9114Z" fill="#E48C59"/>
<path d="M13.7655 20.6287L13.7636 20.6305L13.7067 21.8551C13.4241 22.0782 12.8665 22.0211 12.8665 22.0211L12.2842 20.7626C12.3278 20.7091 12.3771 20.6572 12.4321 20.6109L13.4678 20.4253C13.5701 20.4645 13.6706 20.5377 13.7655 20.6287Z" fill="#6455E7"/>
<path d="M10.2831 19.3577L12.4321 20.6108C12.3771 20.6573 12.3278 20.709 12.2841 20.7625C11.7986 21.3194 11.7416 22.1621 11.7416 22.1621L9.64014 20.0771L9.92084 19.1221C9.93607 19.0096 10.1901 18.9435 10.3646 18.9114L10.2831 19.3577Z" fill="#D6DBEB"/>
<path d="M11.7681 33.9099C11.9388 34.1152 13.0919 35.6665 12.2689 35.9699L11.6278 34.8525C11.6278 34.8525 11.017 36.659 10.2262 37.1482L9.71779 34.9293L9.67223 34.7294L9.47693 34.4652C9.78415 34.2634 10.4119 33.8083 10.6926 33.3013L10.9506 33.5637C10.9506 33.5637 11.5955 33.7064 11.7681 33.9099Z" fill="#E48C59"/>
<path d="M14.7952 12.8046C14.7458 13.1205 14.5714 13.4366 14.2698 13.5846C14.1882 13.6239 14.103 13.6507 14.0138 13.665C13.8183 13.7025 13.6079 13.6882 13.4068 13.6668C12.9421 13.6168 12.4812 13.5311 12.0147 13.5329C11.5709 13.5347 11.1119 13.6275 10.7591 13.8775C10.8806 14.9235 10.0061 15.3074 10.0061 15.3074C9.9207 15.2949 9.83162 15.3002 9.74812 15.3217C9.5603 15.3736 9.40486 15.5109 9.31945 15.6769C9.30612 15.7055 9.29293 15.734 9.2815 15.7644L9.21894 15.7394C8.76946 15.3539 8.5229 14.7665 8.57403 14.1971C8.59674 13.9276 8.68977 13.6526 8.89839 13.467C9.10511 13.2814 9.44457 13.21 9.68746 13.3545C9.55092 12.9153 9.75954 12.4031 10.173 12.1638C10.4802 11.9853 10.8614 11.9585 11.2199 11.9978C11.5784 12.0371 11.9274 12.1371 12.2821 12.1978C12.3618 12.2121 12.4413 12.2227 12.521 12.2299C12.8017 12.2602 13.0881 12.2496 13.3498 12.1549C13.6874 12.0335 13.9757 11.7461 13.9966 11.407C14.1844 11.7069 14.2148 12.087 14.0763 12.4102C14.3704 12.3334 14.6206 12.1211 14.7325 11.8533C14.7895 12.1673 14.8465 12.4887 14.7952 12.8046Z" fill="#222A40"/>
<path d="M10.0632 57.0964V59.7259L6.96022 60.0865H4.65393C4.65393 60.0865 4.43579 59.6581 4.85113 59.3297C5.26647 59.0012 7.75677 57.8766 7.75677 57.8766L7.69231 57.0966H10.0632V57.0964Z" fill="#222A40"/>
<path d="M13.1113 14.97C13.1113 14.97 12.9769 15.3591 13.0211 15.8161C13.0653 16.273 13.3724 16.5364 13.5298 16.4978C13.6871 16.4591 13.9633 16.2313 13.9175 15.9968C13.9175 15.9968 13.8411 15.8422 13.707 15.7257C13.5729 15.6093 13.1113 14.97 13.1113 14.97Z" fill="#E07045"/>
<path d="M13.3463 16.6557C13.3202 16.6557 13.2952 16.6415 13.284 16.6175C13.2689 16.5851 13.2844 16.5474 13.3187 16.5331C13.5182 16.4501 13.6927 16.3174 13.8231 16.1492C13.875 16.0824 13.8654 15.9857 13.8003 15.9195C13.4831 15.5971 13.2013 15.242 12.9628 14.8641C12.9436 14.8337 12.9542 14.7944 12.9865 14.7764C13.0188 14.7582 13.0604 14.7683 13.0796 14.7987C13.3134 15.1688 13.5894 15.5166 13.9001 15.8325C14.0092 15.9435 14.0231 16.1083 13.933 16.2246C13.7885 16.4111 13.5951 16.5581 13.3738 16.6502C13.3648 16.654 13.3554 16.6557 13.3463 16.6557Z" fill="#222A40"/>
<path d="M12.4011 15.1427C12.4011 15.3146 12.2722 15.4541 12.1134 15.4541C11.9544 15.4541 11.8254 15.3148 11.8254 15.1427C11.8254 14.9707 11.9544 14.8313 12.1134 14.8313C12.2723 14.8314 12.4011 14.9708 12.4011 15.1427Z" fill="#222A40"/>
<path d="M14.2123 15.1427C14.2123 15.3146 14.0834 15.4541 13.9244 15.4541C13.7654 15.4541 13.6365 15.3148 13.6365 15.1427C13.6365 14.9707 13.7654 14.8313 13.9244 14.8313C14.0834 14.8314 14.2123 14.9708 14.2123 15.1427Z" fill="#222A40"/>
<path d="M12.2418 14.1746C11.9926 14.1943 11.7573 14.2537 11.531 14.3535C11.4902 14.3715 11.4554 14.4209 11.4439 14.4602C11.4314 14.5029 11.4371 14.5597 11.463 14.5978C11.4892 14.6359 11.528 14.6694 11.5763 14.6798C11.6286 14.6911 11.674 14.6831 11.7225 14.6618C11.7346 14.6564 11.747 14.6515 11.7594 14.6464C11.8972 14.5934 12.041 14.5569 12.1883 14.537C12.2061 14.535 12.224 14.533 12.2419 14.5316C12.293 14.5275 12.3387 14.5144 12.376 14.4792C12.4089 14.4483 12.4337 14.3974 12.4315 14.353C12.4271 14.263 12.3476 14.1661 12.2418 14.1746Z" fill="#222A40"/>
<path d="M13.6172 14.1746C13.8664 14.1943 14.1016 14.2537 14.3279 14.3535C14.3687 14.3715 14.4036 14.4209 14.4151 14.4602C14.4276 14.5029 14.4219 14.5597 14.3959 14.5978C14.3698 14.6359 14.3309 14.6694 14.2827 14.6798C14.2304 14.6911 14.185 14.6831 14.1365 14.6618C14.1244 14.6564 14.112 14.6515 14.0997 14.6464C13.962 14.5934 13.8181 14.5569 13.6708 14.537C13.653 14.535 13.6352 14.533 13.6172 14.5316C13.5661 14.5275 13.5204 14.5144 13.4831 14.4792C13.4502 14.4483 13.4254 14.3974 13.4276 14.353C13.4318 14.263 13.5113 14.1661 13.6172 14.1746Z" fill="#222A40"/>
<path d="M13.695 17.1815C13.5907 17.3636 13.3271 17.6903 12.8054 17.6081C12.3293 17.5349 12.2118 17.1208 12.1853 16.9065C12.1758 16.8405 12.2385 16.787 12.3067 16.7994L13.6231 17.044C13.6914 17.0566 13.7274 17.1262 13.695 17.1815Z" fill="white"/>
<path d="M10.2013 16.803C10.1665 16.803 10.1368 16.778 10.1335 16.7447C10.099 16.3878 9.89867 16.0434 9.59784 15.8238C9.56819 15.8021 9.56275 15.7619 9.58587 15.7339C9.60899 15.7061 9.65156 15.701 9.68134 15.7226C10.0114 15.9638 10.2312 16.3415 10.2691 16.7332C10.2725 16.7684 10.2449 16.7995 10.2075 16.8028C10.2054 16.803 10.2033 16.803 10.2013 16.803Z" fill="#222A40"/>
<path d="M10.8103 33.0687C10.7798 33.0687 10.7521 33.0494 10.7443 33.0202L10.6762 32.7625L8.272 29.2164C7.80443 28.4955 6.93743 28.0533 6.92873 28.0489C6.89568 28.0323 6.88317 27.9935 6.90085 27.9623C6.91866 27.9311 6.95974 27.9194 6.99292 27.936C7.02978 27.9546 7.90086 28.3984 8.38746 29.1486L10.7968 32.7025C10.8008 32.7083 10.8038 32.7147 10.8055 32.7213L10.8764 32.9891C10.8854 33.0235 10.8632 33.0581 10.8269 33.0668C10.8213 33.0681 10.8157 33.0687 10.8103 33.0687Z" fill="#222A40"/>
<path d="M9.17545 27.1637C9.16824 27.1637 9.1609 27.1626 9.15382 27.1603C9.11819 27.1491 9.09902 27.1128 9.11098 27.0793L9.84892 25.0113C9.86089 24.9779 9.89965 24.96 9.93501 24.971C9.97064 24.9823 9.98982 25.0186 9.97785 25.052L9.23991 27.12C9.23039 27.1468 9.20387 27.1637 9.17545 27.1637Z" fill="#222A40"/>
<path d="M9.54428 27.1638C9.53095 27.1638 9.51748 27.1601 9.50565 27.1524C9.47478 27.1323 9.46703 27.0925 9.48838 27.0634L10.4725 25.7233C10.4937 25.6941 10.5363 25.6868 10.567 25.707C10.5979 25.7271 10.6056 25.7669 10.5843 25.796L9.60017 27.1361C9.58712 27.1542 9.5659 27.1638 9.54428 27.1638Z" fill="#222A40"/>
<path d="M18.1733 24.3683C18.1421 24.3683 18.1141 24.3482 18.107 24.3184L17.7209 22.7134C17.7126 22.6789 17.7356 22.6446 17.7722 22.6368C17.8089 22.6291 17.8452 22.6505 17.8535 22.6851L18.2396 24.2901C18.2479 24.3245 18.2249 24.3588 18.1884 24.3666C18.1833 24.3678 18.1782 24.3683 18.1733 24.3683Z" fill="#222A40"/>
<path d="M15.7134 32.8011C15.6934 32.8011 15.6736 32.793 15.6601 32.7771C15.6367 32.7494 15.6415 32.7092 15.671 32.6872L17.938 30.9865C17.9673 30.9642 18.0102 30.969 18.0336 30.9966C18.057 31.0242 18.0522 31.0644 18.0227 31.0865L15.7558 32.7872C15.7432 32.7967 15.7282 32.8011 15.7134 32.8011Z" fill="#222A40"/>
<path d="M22.4099 23.7227C22.408 23.7227 22.4061 23.7227 22.4042 23.7224C22.3668 23.7195 22.3389 23.6885 22.3422 23.6533L22.6045 20.7091C22.6077 20.6739 22.6404 20.6472 22.678 20.6507C22.7154 20.6536 22.7431 20.6846 22.74 20.7198L22.4776 23.6641C22.4746 23.6975 22.4449 23.7227 22.4099 23.7227Z" fill="#222A40"/>
<path d="M12.8663 22.085C12.8349 22.085 12.8066 22.0643 12.7998 22.0342C12.7921 21.9996 12.8156 21.9657 12.8524 21.9584L13.6927 21.7924C13.729 21.7851 13.7654 21.8073 13.7732 21.8419C13.7809 21.8765 13.7574 21.9104 13.7205 21.9177L12.8803 22.0837C12.8757 22.0846 12.8709 22.085 12.8663 22.085Z" fill="#222A40"/>
<path d="M24.257 18.0259H22.7252C22.6877 18.0259 22.6572 17.9973 22.6572 17.9619C22.6572 17.9266 22.6877 17.8979 22.7252 17.8979H24.257C24.2945 17.8979 24.325 17.9266 24.325 17.9619C24.325 17.9973 24.2945 18.0259 24.257 18.0259Z" fill="#222A40"/>
<path d="M24.2308 18.6444C24.2297 18.6444 24.2287 18.6444 24.2276 18.6442L22.5742 18.5719C22.5368 18.5703 22.5077 18.5403 22.5095 18.505C22.5112 18.4698 22.5401 18.4411 22.5806 18.4441L24.234 18.5164C24.2714 18.518 24.3005 18.548 24.2987 18.5833C24.2969 18.6176 24.2669 18.6444 24.2308 18.6444Z" fill="#222A40"/>
<path d="M24.2571 19.2664H22.9187C22.8812 19.2664 22.8507 19.2378 22.8507 19.2024C22.8507 19.1671 22.8812 19.1384 22.9187 19.1384H24.2571C24.2946 19.1384 24.3251 19.1671 24.3251 19.2024C24.3251 19.2378 24.2946 19.2664 24.2571 19.2664Z" fill="#222A40"/>
<path d="M23.9736 20.5385C23.9381 20.5385 23.9082 20.5126 23.9058 20.4789C23.9024 20.4303 23.8747 19.9989 23.9795 19.8117C23.9969 19.7804 24.0381 19.7686 24.0713 19.785C24.1046 19.8013 24.1172 19.8401 24.0998 19.8714C24.0261 20.0029 24.0328 20.3483 24.0415 20.4703C24.0439 20.5055 24.0156 20.5361 23.9782 20.5385C23.9767 20.5384 23.9751 20.5385 23.9736 20.5385Z" fill="#222A40"/>
<path d="M24.829 16.8518C24.7787 16.976 23.9777 17.0745 22.9971 17.0745C22.0152 17.0745 21.2141 16.976 21.1638 16.8518C21.1638 16.8518 22.9087 16.2118 24.829 16.8518Z" fill="#222A40"/>
<path d="M24.0396 16.3023C24.0289 16.3023 24.018 16.3 24.0079 16.2949C23.9747 16.2784 23.9619 16.2396 23.9795 16.2084L24.7686 14.8015C24.7861 14.7702 24.8273 14.7583 24.8605 14.7748C24.8937 14.7913 24.9065 14.8301 24.8889 14.8613L24.0998 16.2681C24.0876 16.2899 24.0641 16.3023 24.0396 16.3023Z" fill="#222A40"/>
<path d="M23.6706 16.1591C23.6685 16.1591 23.6664 16.1591 23.6642 16.1588C23.6268 16.1555 23.5994 16.1243 23.6029 16.0891L23.7435 14.6789C23.7471 14.6438 23.7789 14.6177 23.8177 14.6212C23.8551 14.6245 23.8825 14.6557 23.879 14.6909L23.7384 16.1011C23.735 16.1342 23.7053 16.1591 23.6706 16.1591Z" fill="#222A40"/>
<path d="M24.4341 16.4445C24.4173 16.4445 24.4004 16.4386 24.3872 16.4268C24.36 16.4025 24.3589 16.3619 24.3849 16.3363L25.1632 15.5672C25.1893 15.5416 25.2323 15.5408 25.2594 15.5649C25.2866 15.5892 25.2877 15.6297 25.2618 15.6553L24.4835 16.4245C24.47 16.4378 24.4521 16.4445 24.4341 16.4445Z" fill="#222A40"/>
<path d="M9.71719 13.5017C9.68645 13.5017 9.65871 13.4821 9.65123 13.4528C9.53019 12.9829 9.65204 12.4754 9.9692 12.1283C10.3063 11.7596 10.854 11.5924 11.3315 11.7126C11.5786 11.7747 11.7946 11.905 12.0036 12.0309C12.0599 12.0649 12.116 12.0986 12.1727 12.1312C12.3821 12.2512 12.6968 12.4047 13.0073 12.3538C13.0444 12.348 13.0797 12.371 13.086 12.4057C13.0924 12.4405 13.0678 12.4737 13.0308 12.4798C12.6746 12.5382 12.3303 12.3713 12.1019 12.2405C12.0444 12.2074 11.9874 12.1731 11.9303 12.1387C11.7301 12.0181 11.523 11.8932 11.2964 11.8362C10.868 11.7285 10.3762 11.8793 10.0723 12.2119C9.78328 12.5282 9.67258 12.9922 9.78342 13.4227C9.79226 13.457 9.76982 13.4917 9.73337 13.5C9.7278 13.5011 9.72249 13.5017 9.71719 13.5017Z" fill="#222A40"/>
<path d="M9.43019 13.059C9.40176 13.059 9.37524 13.0421 9.36572 13.0155C9.23911 12.6612 9.24115 12.2715 9.37143 11.9185C9.38367 11.8851 9.42243 11.8674 9.45793 11.8791C9.49343 11.8906 9.51219 11.9271 9.49982 11.9605C9.37932 12.2869 9.37755 12.6471 9.49465 12.9745C9.50662 13.008 9.48744 13.0443 9.45195 13.0556C9.44474 13.058 9.43739 13.059 9.43019 13.059Z" fill="#222A40"/>
<path d="M9.26206 13.1687C9.24329 13.1687 9.22452 13.1614 9.21106 13.147C8.96626 12.886 8.80972 12.5517 8.77028 12.2055C8.76634 12.1704 8.79326 12.1388 8.83066 12.1351C8.86861 12.1317 8.90166 12.1567 8.90547 12.1919C8.94191 12.512 9.08675 12.8211 9.31306 13.0624C9.33794 13.0889 9.33522 13.1294 9.30707 13.1528C9.29415 13.1634 9.2781 13.1687 9.26206 13.1687Z" fill="#222A40"/>
<path d="M14.7194 39.0488C14.7119 39.0488 14.7044 39.0476 14.6969 39.0452C14.6614 39.0336 14.6428 38.9971 14.6552 38.9637L15.6491 36.2917C15.6549 36.2761 15.6668 36.2631 15.6825 36.2557L18.3188 34.9986C18.3524 34.9826 18.3932 34.9953 18.4102 35.0269C18.4272 35.0584 18.4137 35.0969 18.3802 35.1129L15.7684 36.3584L14.7834 39.006C14.7738 39.0323 14.7475 39.0488 14.7194 39.0488Z" fill="#10141C"/>
<path d="M19.0526 36.5921H16.0472C16.0097 36.5921 15.9792 36.5634 15.9792 36.5281C15.9792 36.4928 16.0097 36.4641 16.0472 36.4641H19.0526C19.0901 36.4641 19.1206 36.4928 19.1206 36.5281C19.1206 36.5634 19.0901 36.5921 19.0526 36.5921Z" fill="#10141C"/>
<path d="M9.80806 37.5513C9.78072 37.5513 9.75502 37.5357 9.74454 37.5104C9.73108 37.4775 9.74849 37.4405 9.7833 37.4277C9.79527 37.4232 10.7545 37.0416 11.5637 34.8315C11.5759 34.7981 11.6145 34.7804 11.6502 34.7918C11.6857 34.8033 11.7044 34.8397 11.6923 34.8732C10.8577 37.1531 9.87402 37.532 9.83254 37.5471C9.82438 37.5499 9.81608 37.5513 9.80806 37.5513Z" fill="#10141C"/>
<path d="M10.2907 57.1605H7.39075C7.35322 57.1605 7.32275 57.1318 7.32275 57.0965C7.32275 57.0611 7.35322 57.0325 7.39075 57.0325H10.2907C10.3282 57.0325 10.3587 57.0611 10.3587 57.0965C10.3587 57.1319 10.3284 57.1605 10.2907 57.1605Z" fill="#10141C"/>
<path d="M18.4102 57.1605H15.4325C15.395 57.1605 15.3645 57.1318 15.3645 57.0965C15.3645 57.0611 15.395 57.0325 15.4325 57.0325H18.4102C18.4478 57.0325 18.4782 57.0611 18.4782 57.0965C18.4782 57.1319 18.4479 57.1605 18.4102 57.1605Z" fill="#10141C"/>
</g>
<defs>
<clipPath id="clip0_5_1002">
<rect width="68" height="64" fill="white" transform="translate(0 0.5)"/>
</clipPath>
</defs>
</svg>
