<svg width="24" height="24" viewBox="0 0 24 24" fill="none" xmlns="http://www.w3.org/2000/svg">
<path d="M12 18.4166C13.0306 18.4166 14.0076 18.193 14.9313 17.7458C15.8549 17.2986 16.5986 16.6472 17.1625 15.7916C17.3764 15.4611 17.4056 15.1354 17.25 14.8146C17.0945 14.4937 16.8417 14.3333 16.4917 14.3333C16.3361 14.3333 16.1952 14.3673 16.0688 14.4354C15.9424 14.5035 15.8403 14.6055 15.7625 14.7416C15.3153 15.3444 14.7611 15.816 14.1 16.1562C13.4389 16.4965 12.7389 16.6666 12 16.6666C11.2611 16.6666 10.5611 16.4965 9.90001 16.1562C9.2389 15.816 8.68473 15.3444 8.23751 14.7416C8.14029 14.6055 8.02848 14.5035 7.90209 14.4354C7.77571 14.3673 7.63473 14.3333 7.47918 14.3333C7.12918 14.3333 6.8764 14.4889 6.72084 14.8C6.56529 15.1111 6.59446 15.4222 6.80834 15.7333C7.37223 16.6083 8.11598 17.2743 9.03959 17.7312C9.96321 18.1882 10.95 18.4166 12 18.4166ZM16.0833 10.8333C16.5695 10.8333 16.9827 10.6632 17.3229 10.3229C17.6632 9.98262 17.8333 9.56942 17.8333 9.08331C17.8333 8.5972 17.6632 8.18401 17.3229 7.84373C16.9827 7.50345 16.5695 7.33331 16.0833 7.33331C15.5972 7.33331 15.184 7.50345 14.8438 7.84373C14.5035 8.18401 14.3333 8.5972 14.3333 9.08331C14.3333 9.56942 14.5035 9.98262 14.8438 10.3229C15.184 10.6632 15.5972 10.8333 16.0833 10.8333ZM7.91668 10.8333C8.40279 10.8333 8.81598 10.6632 9.15626 10.3229C9.49654 9.98262 9.66668 9.56942 9.66668 9.08331C9.66668 8.5972 9.49654 8.18401 9.15626 7.84373C8.81598 7.50345 8.40279 7.33331 7.91668 7.33331C7.43057 7.33331 7.01737 7.50345 6.67709 7.84373C6.33682 8.18401 6.16668 8.5972 6.16668 9.08331C6.16668 9.56942 6.33682 9.98262 6.67709 10.3229C7.01737 10.6632 7.43057 10.8333 7.91668 10.8333ZM12 23.6666C10.3861 23.6666 8.86946 23.3604 7.45001 22.7479C6.03057 22.1354 4.79584 21.3041 3.74584 20.2541C2.69584 19.2041 1.86459 17.9694 1.25209 16.55C0.639594 15.1305 0.333344 13.6139 0.333344 12C0.333344 10.3861 0.639594 8.86942 1.25209 7.44998C1.86459 6.03054 2.69584 4.79581 3.74584 3.74581C4.79584 2.69581 6.03057 1.86456 7.45001 1.25206C8.86946 0.639563 10.3861 0.333313 12 0.333313C13.6139 0.333313 15.1306 0.639563 16.55 1.25206C17.9695 1.86456 19.2042 2.69581 20.2542 3.74581C21.3042 4.79581 22.1354 6.03054 22.7479 7.44998C23.3604 8.86942 23.6667 10.3861 23.6667 12C23.6667 13.6139 23.3604 15.1305 22.7479 16.55C22.1354 17.9694 21.3042 19.2041 20.2542 20.2541C19.2042 21.3041 17.9695 22.1354 16.55 22.7479C15.1306 23.3604 13.6139 23.6666 12 23.6666Z" fill="#A7A7A7"/>
</svg>
