<svg width="40" height="40" viewBox="0 0 40 40" fill="none" xmlns="http://www.w3.org/2000/svg">
<circle cx="20" cy="20" r="19.5" fill="#FFF1F2" stroke="#E5555E"/>
<mask id="mask0_2539_172" style="mask-type:alpha" maskUnits="userSpaceOnUse" x="8" y="10" width="24" height="24">
<rect x="8" y="10" width="24" height="24" fill="#D9D9D9"/>
</mask>
<g mask="url(#mask0_2539_172)">
<path d="M20 30.325C19.7667 30.325 19.5292 30.2834 19.2875 30.2C19.0458 30.1167 18.8333 29.9834 18.65 29.8L16.925 28.225C15.1583 26.6084 13.5625 25.0042 12.1375 23.4125C10.7125 21.8209 10 20.0667 10 18.15C10 16.5834 10.525 15.275 11.575 14.225C12.625 13.175 13.9333 12.65 15.5 12.65C16.3833 12.65 17.2167 12.8375 18 13.2125C18.7833 13.5875 19.45 14.1 20 14.75C20.55 14.1 21.2167 13.5875 22 13.2125C22.7833 12.8375 23.6167 12.65 24.5 12.65C26.0667 12.65 27.375 13.175 28.425 14.225C29.475 15.275 30 16.5834 30 18.15C30 20.0667 29.2917 21.825 27.875 23.425C26.4583 25.025 24.85 26.6334 23.05 28.25L21.35 29.8C21.1667 29.9834 20.9542 30.1167 20.7125 30.2C20.4708 30.2834 20.2333 30.325 20 30.325Z" fill="#DF2B36"/>
</g>
</svg>
