<svg width="22" height="22" viewBox="0 0 22 22" fill="none" xmlns="http://www.w3.org/2000/svg">
<path d="M2.83333 21.5C2.19167 21.5 1.64236 21.2715 1.18542 20.8146C0.728472 20.3576 0.5 19.8083 0.5 19.1667V2.83333C0.5 2.19167 0.728472 1.64236 1.18542 1.18542C1.64236 0.728472 2.19167 0.5 2.83333 0.5H19.1667C19.8083 0.5 20.3576 0.728472 20.8146 1.18542C21.2715 1.64236 21.5 2.19167 21.5 2.83333V19.1667C21.5 19.8083 21.2715 20.3576 20.8146 20.8146C20.3576 21.2715 19.8083 21.5 19.1667 21.5H2.83333ZM5.16667 16.8333H16.8333C17.0667 16.8333 17.2417 16.7264 17.3583 16.5125C17.475 16.2986 17.4556 16.0944 17.3 15.9L14.0917 11.6125C13.975 11.4569 13.8194 11.3792 13.625 11.3792C13.4306 11.3792 13.275 11.4569 13.1583 11.6125L10.125 15.6667L7.96667 12.7792C7.85 12.6236 7.69444 12.5458 7.5 12.5458C7.30556 12.5458 7.15 12.6236 7.03333 12.7792L4.7 15.9C4.54444 16.0944 4.525 16.2986 4.64167 16.5125C4.75833 16.7264 4.93333 16.8333 5.16667 16.8333ZM6.91667 8.66667C7.40278 8.66667 7.81597 8.49653 8.15625 8.15625C8.49653 7.81597 8.66667 7.40278 8.66667 6.91667C8.66667 6.43056 8.49653 6.01736 8.15625 5.67708C7.81597 5.33681 7.40278 5.16667 6.91667 5.16667C6.43056 5.16667 6.01736 5.33681 5.67708 5.67708C5.33681 6.01736 5.16667 6.43056 5.16667 6.91667C5.16667 7.40278 5.33681 7.81597 5.67708 8.15625C6.01736 8.49653 6.43056 8.66667 6.91667 8.66667Z" fill="#A7A7A7"/>
</svg>
