<svg width="32" height="34" viewBox="0 0 32 34" fill="none" xmlns="http://www.w3.org/2000/svg">
<path d="M8.07038 12.3488C8.07038 10.2763 8.89365 8.28879 10.3591 6.82336C11.8245 5.35794 13.812 4.53467 15.8845 4.53467C17.9569 4.53467 19.9445 5.35794 21.4099 6.82336C22.8753 8.28879 23.6986 10.2763 23.6986 12.3488V16.1477C23.6986 17.0633 23.9955 17.9541 24.5451 18.6873L27.2149 22.2466C27.4326 22.5369 27.5651 22.882 27.5977 23.2433C27.6303 23.6046 27.5616 23.9679 27.3994 24.2924C27.2371 24.6169 26.9877 24.8898 26.6791 25.0805C26.3705 25.2712 26.0149 25.3723 25.6521 25.3723H6.11686C5.75406 25.3723 5.39844 25.2712 5.08983 25.0805C4.78122 24.8898 4.53182 24.6169 4.36957 24.2924C4.20732 23.9679 4.13864 23.6046 4.17122 23.2433C4.20381 22.882 4.33636 22.5369 4.55404 22.2466L7.22385 18.6873C7.77334 17.9546 8.07038 17.0635 8.07038 16.1477V12.3488ZM15.8845 29.9305C14.9028 29.9303 13.9473 29.6134 13.1601 29.0268C12.3729 28.4402 11.796 27.6153 11.5151 26.6746H20.2539C19.973 27.6153 19.3961 28.4402 18.6089 29.0268C17.8217 29.6134 16.8662 29.9303 15.8845 29.9305Z" fill="#10100E"/>
<circle cx="22.5822" cy="6.39516" r="4.74427" fill="#479BD8" stroke="white" stroke-width="1.67445"/>
</svg>
