<svg width="32" height="34" viewBox="0 0 32 34" fill="none" xmlns="http://www.w3.org/2000/svg">
<path d="M24.7447 5.83698H6.51182C5.4756 5.83698 4.48183 6.24861 3.74911 6.98132C3.0164 7.71404 2.60477 8.70781 2.60477 9.74402V29.2793C2.60516 29.51 2.66687 29.7366 2.78358 29.9356C2.90029 30.1347 3.0678 30.2992 3.26897 30.4123C3.46361 30.5226 3.68339 30.5809 3.90712 30.5816C4.14087 30.5815 4.37029 30.5186 4.57131 30.3993L10.4189 26.8569C10.635 26.7282 10.8838 26.6649 11.1352 26.6746H24.7447C25.7809 26.6746 26.7747 26.2629 27.5074 25.5302C28.2401 24.7975 28.6518 23.8037 28.6518 22.7675V9.74402C28.6518 8.70781 28.2401 7.71404 27.5074 6.98132C26.7747 6.24861 25.7809 5.83698 24.7447 5.83698ZM10.4189 17.5581C10.1613 17.5581 9.90949 17.4817 9.69532 17.3386C9.48115 17.1955 9.31422 16.9921 9.21565 16.7542C9.11708 16.5162 9.09129 16.2543 9.14154 16.0017C9.19179 15.7491 9.31583 15.517 9.49796 15.3349C9.6801 15.1527 9.91216 15.0287 10.1648 14.9784C10.4174 14.9282 10.6793 14.954 10.9173 15.0526C11.1552 15.1511 11.3586 15.3181 11.5017 15.5322C11.6448 15.7464 11.7212 15.9982 11.7212 16.2558C11.7212 16.6012 11.584 16.9324 11.3398 17.1767C11.0955 17.4209 10.7643 17.5581 10.4189 17.5581ZM15.6283 17.5581C15.3707 17.5581 15.1189 17.4817 14.9047 17.3386C14.6905 17.1955 14.5236 16.9921 14.425 16.7542C14.3265 16.5162 14.3007 16.2543 14.3509 16.0017C14.4012 15.7491 14.5252 15.517 14.7074 15.3349C14.8895 15.1527 15.1216 15.0287 15.3742 14.9784C15.6268 14.9282 15.8887 14.954 16.1267 15.0526C16.3646 15.1511 16.568 15.3181 16.7111 15.5322C16.8542 15.7464 16.9306 15.9982 16.9306 16.2558C16.9306 16.6012 16.7934 16.9324 16.5492 17.1767C16.3049 17.4209 15.9737 17.5581 15.6283 17.5581ZM20.8377 17.5581C20.5801 17.5581 20.3283 17.4817 20.1141 17.3386C19.8999 17.1955 19.733 16.9921 19.6344 16.7542C19.5359 16.5162 19.5101 16.2543 19.5603 16.0017C19.6106 15.7491 19.7346 15.517 19.9168 15.3349C20.0989 15.1527 20.331 15.0287 20.5836 14.9784C20.8362 14.9282 21.0981 14.954 21.336 15.0526C21.574 15.1511 21.7774 15.3181 21.9205 15.5322C22.0636 15.7464 22.14 15.9982 22.14 16.2558C22.14 16.6012 22.0028 16.9324 21.7586 17.1767C21.5143 17.4209 21.1831 17.5581 20.8377 17.5581Z" fill="#10100E"/>
<circle cx="25.6749" cy="6.39516" r="4.74427" fill="#479BD8" stroke="white" stroke-width="1.67445"/>
</svg>
