<svg width="24" height="25" viewBox="0 0 24 25" fill="none" xmlns="http://www.w3.org/2000/svg">
<mask id="mask0_338_229" style="mask-type:alpha" maskUnits="userSpaceOnUse" x="0" y="0" width="24" height="25">
<rect y="0.5" width="24" height="24" fill="#D9D9D9"/>
</mask>
<g mask="url(#mask0_338_229)">
<path d="M17 8.9L6.09999 19.8C5.91665 19.9833 5.68332 20.075 5.39999 20.075C5.11665 20.075 4.88332 19.9833 4.69999 19.8C4.51665 19.6167 4.42499 19.3833 4.42499 19.1C4.42499 18.8167 4.51665 18.5833 4.69999 18.4L15.6 7.5H9.99999C9.71665 7.5 9.47915 7.40417 9.28749 7.2125C9.09582 7.02083 8.99999 6.78333 8.99999 6.5C8.99999 6.21667 9.09582 5.97917 9.28749 5.7875C9.47915 5.59583 9.71665 5.5 9.99999 5.5H18C18.2833 5.5 18.5208 5.59583 18.7125 5.7875C18.9042 5.97917 19 6.21667 19 6.5V14.5C19 14.7833 18.9042 15.0208 18.7125 15.2125C18.5208 15.4042 18.2833 15.5 18 15.5C17.7167 15.5 17.4792 15.4042 17.2875 15.2125C17.0958 15.0208 17 14.7833 17 14.5V8.9Z" fill="white"/>
</g>
</svg>
